<svg xmlns="http://www.w3.org/2000/svg" width="106.249" height="60" viewBox="0 0 106.249 60"><defs><style>.a{fill:#fff;}</style></defs><g transform="translate(-857.872 -618.023)"><path class="a" d="M1101.64,665.82a.868.868,0,0,0,0,1.734,2.832,2.832,0,0,1,2.85,2.85.794.794,0,0,0,.867.826.808.808,0,0,0,.867-.878,4.656,4.656,0,0,0-1.36-3.213,4.4,4.4,0,0,0-3.224-1.319" transform="translate(-149.123 -29.339)"/><path class="a" d="M1115.385,650.156a8.5,8.5,0,0,0-6.154-2.514.774.774,0,0,0-.826.826.794.794,0,0,0,.826.867,6.855,6.855,0,0,1,4.953,2.026,6.634,6.634,0,0,1,2.026,4.911.813.813,0,0,0,.867.867.794.794,0,0,0,.826-.867,8.36,8.36,0,0,0-2.518-6.117" transform="translate(-153.783 -18.181)"/><path class="a" d="M1105.473,656.731a.812.812,0,0,0-.915.867.794.794,0,0,0,.867.826,4.944,4.944,0,0,1,4.915,4.913.794.794,0,0,0,.826.867.8.8,0,0,0,.867-.867,6.688,6.688,0,0,0-6.559-6.607" transform="translate(-151.421 -23.76)"/><path class="a" d="M905.368,701.794a2.018,2.018,0,0,0-.7-1.652,8.832,8.832,0,0,0-2.313-1.28v5.575q3.014-.5,3.015-2.643" transform="translate(-27.303 -49.621)"/><path class="a" d="M895.437,755.132a1.961,1.961,0,0,0,1.445-.578,2.119,2.119,0,0,0,.619-1.487,2.043,2.043,0,0,0-2.065-2.023,2.2,2.2,0,0,0-1.487.578,2.052,2.052,0,0,0-.578,1.445,1.98,1.98,0,0,0,2.065,2.065m0-2.85a.694.694,0,0,1,.784.785q0,.826-.784.826-.744,0-.743-.826,0-.784.743-.785" transform="translate(-21.791 -81.651)"/><path class="a" d="M891.772,672.558a3.822,3.822,0,0,0-2.148.867,1.814,1.814,0,0,0-.743,1.569,2.518,2.518,0,0,0,.619,1.652,6.153,6.153,0,0,0,2.272,1.28Z" transform="translate(-19.034 -33.475)"/><path class="a" d="M887.4,619.468a4.99,4.99,0,0,0-3.18-1.445H862.538a4.989,4.989,0,0,0-3.18,1.445,4.846,4.846,0,0,0-1.486,3.552v49.924a4.894,4.894,0,0,0,1.486,3.593,4.754,4.754,0,0,0,3.18,1.445v.041h21.679v-.041a4.755,4.755,0,0,0,3.18-1.445,4.893,4.893,0,0,0,1.486-3.593V623.02a4.846,4.846,0,0,0-1.486-3.552m-2.354,53.476a1.318,1.318,0,0,1-.331.908,1.229,1.229,0,0,1-.867.372H862.91a1.231,1.231,0,0,1-.868-.372,1.32,1.32,0,0,1-.33-.908v-4.419h23.331Zm-13.792-25.065a9.945,9.945,0,0,1-4.171-2.6,5.7,5.7,0,0,1-1.28-3.717,4.85,4.85,0,0,1,1.859-3.923,8.537,8.537,0,0,1,5.079-1.858v-2.932h2.312V635.7a18.734,18.734,0,0,1,6.648,1.4l-1.239,3.18a20.21,20.21,0,0,0-5.41-1.322v6.318l1.28.537a11.876,11.876,0,0,1,4.584,2.684,4.867,4.867,0,0,1,1.239,3.469,5.226,5.226,0,0,1-1.817,4.088,9.274,9.274,0,0,1-5.286,2.024v3.758h-2.312V658.2a17.086,17.086,0,0,1-7.1-1.362v-3.634a18.956,18.956,0,0,0,3.469,1.239,15.459,15.459,0,0,0,3.634.5v-6.483Zm13.792-21.391H861.712V623.02a1.373,1.373,0,0,1,.33-.868,1.232,1.232,0,0,1,.868-.371h20.936a1.23,1.23,0,0,1,.867.371,1.371,1.371,0,0,1,.331.868Z"/><path class="a" d="M897.134,633.994h2.312a.661.661,0,1,0,0-1.321h-2.312a.661.661,0,1,0,0,1.321" transform="translate(-23.694 -8.992)"/><path class="a" d="M891.128,632.993a.537.537,0,1,0,.537.537.475.475,0,0,0-.537-.537" transform="translate(-20.084 -9.189)"/><path class="a" d="M1010.9,676.39a3.612,3.612,0,0,0-1.115-2.849,4.485,4.485,0,0,0-3.221-1.033,10.463,10.463,0,0,0-4.707.95l1.074,2.477a7.866,7.866,0,0,1,2.973-.826,1.15,1.15,0,0,1,1.281,1.322v.165l-1.776.041a7.1,7.1,0,0,0-3.468.95,2.959,2.959,0,0,0-1.2,2.56,3.462,3.462,0,0,0,.908,2.56,3.1,3.1,0,0,0,2.354.909,5.672,5.672,0,0,0,2.024-.331,4.558,4.558,0,0,0,1.528-1.28h.083l.7,1.445h2.56V676.39m-3.675,3.1a1.26,1.26,0,0,1-.5,1.074,1.565,1.565,0,0,1-1.156.454q-1.033,0-1.032-.991,0-1.28,1.817-1.362l.867-.041v.867m9.911-10.819h-3.717v14.783h3.717Zm-53.187,2.6a7.29,7.29,0,0,0-5.162-1.693H954v13.875h4.5a7.434,7.434,0,0,0,5.368-1.9,7.2,7.2,0,0,0,1.9-5.327,6.612,6.612,0,0,0-1.817-4.955m-5.12,1.322a2.706,2.706,0,0,1,2.271.95,4.028,4.028,0,0,1,.785,2.808,4.74,4.74,0,0,1-.826,3.015,2.9,2.9,0,0,1-2.478.991h-.826v-7.763h1.074m12.925.124h-3.717v10.737h3.717Zm-1.858-4.336a2.182,2.182,0,0,0-1.487.413,1.514,1.514,0,0,0-.454,1.238q0,1.61,1.941,1.611,1.982,0,1.982-1.611a1.674,1.674,0,0,0-.455-1.238,2.255,2.255,0,0,0-1.528-.413m19.945,4.336h-3.716v10.737h3.716Zm1.776,1.239v1.528h1.322V679.9a3.982,3.982,0,0,0,.826,2.808,3.4,3.4,0,0,0,2.684.909l1.569-.124a8.458,8.458,0,0,0,1.445-.454v-2.726a5.393,5.393,0,0,1-1.775.371.913.913,0,0,1-1.033-1.032v-4.171H999.3v-2.767h-2.643v-2.189h-2.4l-.991,2.271-1.651,1.156m-7.144.537v-1.776h-3.758l-2.065-.207a5.622,5.622,0,0,0-3.427.95,3.347,3.347,0,0,0-1.2,2.725,3.566,3.566,0,0,0,.5,1.941,2.936,2.936,0,0,0,1.321,1.156,3.081,3.081,0,0,0-1.156.908,1.625,1.625,0,0,0-.289.867,1.33,1.33,0,0,0,.372.908,2.775,2.775,0,0,0,.867.7q-2.4.536-2.4,2.478a2.4,2.4,0,0,0,1.239,2.188,6.837,6.837,0,0,0,3.51.785A8.379,8.379,0,0,0,982.7,687a3.416,3.416,0,0,0,1.693-3.055q0-3.014-3.634-3.015h-1.776a4.191,4.191,0,0,1-1.156-.165q-.454-.124-.454-.413a.864.864,0,0,1,.124-.454l.95.041a5.581,5.581,0,0,0,3.634-.95,3.116,3.116,0,0,0,1.239-2.684,2.532,2.532,0,0,0-.331-1.281l1.487-.536m-4.666,1.734a2.428,2.428,0,0,1-.289,1.239,1.017,1.017,0,0,1-.826.413q-1.156,0-1.156-1.652t1.156-1.652q1.115,0,1.115,1.652m-2.932,9.291a.851.851,0,0,1-.5-.743.842.842,0,0,1,.413-.7,2.041,2.041,0,0,1,.991-.248h1.445a4.586,4.586,0,0,1,1.445.165q.5.207.5.578,0,.536-.826.867a5.3,5.3,0,0,1-2.148.33,2.98,2.98,0,0,1-1.321-.248m12.636-16.724a2.255,2.255,0,0,0-1.528-.413,2.087,2.087,0,0,0-1.487.413,1.443,1.443,0,0,0-.454,1.238q0,1.61,1.941,1.611,1.982,0,1.982-1.611a1.674,1.674,0,0,0-.455-1.238m-3.84-14.205a4.824,4.824,0,0,0-1.941.413,2.85,2.85,0,0,0-1.28,1.115H982.2l-.454-1.321h-2.808V665.53h3.717v-4.708a5.519,5.519,0,0,1,.413-2.56,1.493,1.493,0,0,1,1.363-.743,1.032,1.032,0,0,1,.991.537,3.5,3.5,0,0,1,.289,1.61v5.864h3.716v-6.979a4.155,4.155,0,0,0-.991-2.932,3.737,3.737,0,0,0-2.767-1.032m-14.247,2.643a1.168,1.168,0,0,1,1.321,1.322v.165l-1.817.041a6.6,6.6,0,0,0-3.469.949,2.9,2.9,0,0,0-1.2,2.56,3.462,3.462,0,0,0,.908,2.56,3.184,3.184,0,0,0,2.354.909,4.574,4.574,0,0,0,2.024-.372,3.62,3.62,0,0,0,1.528-1.238h.083l.7,1.4h2.56v-7.02a3.825,3.825,0,0,0-1.115-2.891,4.667,4.667,0,0,0-3.221-1.032,9.942,9.942,0,0,0-4.708.991l1.074,2.436a7.464,7.464,0,0,1,2.973-.785m1.321,3.51v.826a1.376,1.376,0,0,1-.5,1.115,1.506,1.506,0,0,1-1.115.413q-1.074,0-1.074-.991,0-1.239,1.817-1.322l.867-.041m-9.7-8.218a8.074,8.074,0,0,0-4.212-.826H954V665.53h5.41a6.29,6.29,0,0,0,3.84-1.074,3.6,3.6,0,0,0,1.4-2.973,3.29,3.29,0,0,0-.578-2.065,3.2,3.2,0,0,0-1.858-1.156v-.083a2.48,2.48,0,0,0,1.569-1.074,3.1,3.1,0,0,0,.619-1.982,2.82,2.82,0,0,0-1.363-2.6m-2.932,4.129a1.853,1.853,0,0,1-1.239.331h-1.115V654.5h1.032q1.776,0,1.776,1.156a1.146,1.146,0,0,1-.455.991m-1.115,3.1a2.225,2.225,0,0,1,1.363.371,1.261,1.261,0,0,1,.454,1.033q0,1.486-1.735,1.486h-1.321v-2.891H959m-.207-12.223a1.674,1.674,0,0,0-.454-1.239,4.575,4.575,0,0,0-1.652-.95,4.232,4.232,0,0,1-1.074-.455,1.191,1.191,0,0,1-.454-.454,1.058,1.058,0,0,1-.165-.661.948.948,0,0,1,.413-.826,1.616,1.616,0,0,1,1.074-.289,4.77,4.77,0,0,1,1.817.371l.289-.743a4.768,4.768,0,0,0-2.065-.413,3.006,3.006,0,0,0-1.775.5,1.8,1.8,0,0,0-.661,1.4,2.033,2.033,0,0,0,.454,1.362,3.958,3.958,0,0,0,1.528.909l1.115.455a1.344,1.344,0,0,1,.537.5.978.978,0,0,1,.165.619,1.173,1.173,0,0,1-.454.95,2.227,2.227,0,0,1-1.322.331,5.167,5.167,0,0,1-1.074-.124L954,648.476v.826a4.7,4.7,0,0,0,2.065.372,3.251,3.251,0,0,0,1.982-.578,1.814,1.814,0,0,0,.743-1.569m7.186-4.625a3.182,3.182,0,0,0-2.519-1.033,3.273,3.273,0,0,0-2.6.991,5.052,5.052,0,0,0,0,5.781,3.64,3.64,0,0,0,5.121-.041,4.144,4.144,0,0,0,.95-2.849,4.049,4.049,0,0,0-.95-2.849m-2.519-.248a2.224,2.224,0,0,1,1.859.785,3.511,3.511,0,0,1,.661,2.312,3.585,3.585,0,0,1-.661,2.354,2.345,2.345,0,0,1-1.9.785,2.422,2.422,0,0,1-1.9-.785,3.583,3.583,0,0,1-.661-2.354,3.509,3.509,0,0,1,.661-2.312,2.394,2.394,0,0,1,1.941-.785m23.29-.289a1.722,1.722,0,0,0-.661,1.4,1.851,1.851,0,0,0,.455,1.362,3.815,3.815,0,0,0,1.486.909l1.157.455a1.366,1.366,0,0,1,.5.5.978.978,0,0,1,.165.619,1.1,1.1,0,0,1-.454.95,2.227,2.227,0,0,1-1.322.331,5.165,5.165,0,0,1-1.074-.124l-1.032-.289v.826a4.694,4.694,0,0,0,2.064.372,3.252,3.252,0,0,0,1.982-.578,1.814,1.814,0,0,0,.743-1.569,1.674,1.674,0,0,0-.454-1.239,4.4,4.4,0,0,0-1.652-.95,3.425,3.425,0,0,1-1.032-.455.9.9,0,0,1-.5-.454,1.058,1.058,0,0,1-.165-.661.948.948,0,0,1,.413-.826,1.616,1.616,0,0,1,1.074-.289,4.773,4.773,0,0,1,1.817.371l.289-.743a4.768,4.768,0,0,0-2.065-.413,2.71,2.71,0,0,0-1.734.5m-5.451-.5a3.434,3.434,0,0,0-2.6.991,5.055,5.055,0,0,0,0,5.781,3.363,3.363,0,0,0,2.6,1.032,3.247,3.247,0,0,0,2.56-1.074,4.166,4.166,0,0,0,.908-2.849,3.98,3.98,0,0,0-.908-2.849,3.231,3.231,0,0,0-2.56-1.033m0,.785a2.271,2.271,0,0,1,1.9.785,3.722,3.722,0,0,1,.661,2.312,3.8,3.8,0,0,1-.661,2.354,2.691,2.691,0,0,1-3.8,0,3.582,3.582,0,0,1-.661-2.354,3.508,3.508,0,0,1,.661-2.312,2.271,2.271,0,0,1,1.9-.785m-6.029.165h.042l-.083,6.731h.867v-7.6h-1.321l-2.395,6.277h-.041l-2.4-6.277h-1.321v7.6h.785v-4.831a14.6,14.6,0,0,0-.083-1.9h.041l2.6,6.731h.7l2.6-6.731m28.122,13.255a6.447,6.447,0,0,0,0,8.135,5.913,5.913,0,0,0,7.887.041,5.807,5.807,0,0,0,1.4-4.088,6.393,6.393,0,0,0-.661-2.973,4.927,4.927,0,0,0-1.858-1.9,5.743,5.743,0,0,0-2.808-.7,5.273,5.273,0,0,0-3.964,1.486m2.684,1.982a1.444,1.444,0,0,1,2.478,0,6.154,6.154,0,0,1,0,4.212,1.444,1.444,0,0,1-2.478,0,4.807,4.807,0,0,1-.372-2.106,4.646,4.646,0,0,1,.372-2.106m-8.92-.537a3.659,3.659,0,0,1,1.156.165l1.239.5,1.115-2.767a8.094,8.094,0,0,0-3.51-.826A5.159,5.159,0,0,0,991.5,660.2a5.642,5.642,0,0,0,1.363,4.089,5.329,5.329,0,0,0,4.005,1.445,6.1,6.1,0,0,0,3.427-.95v-2.973a5.478,5.478,0,0,1-3.139.95q-1.9,0-1.9-2.56a3.4,3.4,0,0,1,.5-1.982,1.618,1.618,0,0,1,1.4-.7m3.634-15.568h-.908v4.955a1.958,1.958,0,0,1-.5,1.445,1.926,1.926,0,0,1-1.487.537,2.266,2.266,0,0,1-1.528-.5,2.108,2.108,0,0,1-.5-1.487v-4.955h-.909v4.914a2.734,2.734,0,0,0,.743,2.024,2.9,2.9,0,0,0,2.148.784,3,3,0,0,0,2.147-.743,2.706,2.706,0,0,0,.785-2.065v-4.914m2.725,1.239h.041l4.171,6.359h.991v-7.6h-.826l.083,6.36h-.041l-4.129-6.36h-1.032v7.6h.826v-4.294a19.782,19.782,0,0,0-.083-2.065" transform="translate(-59.006 -14.637)"/></g></svg>