<svg xmlns="http://www.w3.org/2000/svg" width="20" height="19" viewBox="0 0 20 19"><defs><style>.a{fill:#65c323;}</style></defs><g transform="translate(-213.312 -46.366)"><path class="a" d="M230.976,51.554a.6.6,0,0,0,.424-.178h0a.6.6,0,0,0-.428-1.024h0a.6.6,0,0,0,0,1.2Z" transform="translate(-0.187 -0.031)"/><path class="a" d="M225.625,60.849h0a.856.856,0,1,0-.856-.856A.859.859,0,0,0,225.625,60.849Z" transform="translate(-0.116 -0.102)"/><path class="a" d="M229.38,60.849h0a.856.856,0,1,0-.857-.856A.859.859,0,0,0,229.381,60.849Z" transform="translate(-0.154 -0.102)"/><path class="a" d="M218.971,55.806h0a.856.856,0,1,0-.855.856A.857.857,0,0,0,218.971,55.806Z" transform="translate(-0.04 -0.068)"/><path class="a" d="M225.625,56.662h0a.856.856,0,1,0-.856-.856A.86.86,0,0,0,225.625,56.662Z" transform="translate(-0.116 -0.068)"/><path class="a" d="M229.38,56.662h0a.856.856,0,1,0-.857-.856A.859.859,0,0,0,229.381,56.662Z" transform="translate(-0.154 -0.068)"/><path class="a" d="M221.87,56.662h0a.856.856,0,1,0-.856-.856A.859.859,0,0,0,221.87,56.662Z" transform="translate(-0.078 -0.068)"/><path class="a" d="M221.87,60.849h0a.856.856,0,1,0-.856-.856A.858.858,0,0,0,221.87,60.849Z" transform="translate(-0.078 -0.102)"/><path class="a" d="M233.308,49.776h0v-.31a2.1,2.1,0,0,0-2.081-1.892h-.023l-1.741-.008a1.35,1.35,0,0,0-1.405-1.2,1.365,1.365,0,0,0-1.441,1.2l-6.126.007a1.345,1.345,0,0,0-1.406-1.2,1.372,1.372,0,0,0-1.441,1.2h-1.458a.455.455,0,0,0-.093.011h-.019A2.075,2.075,0,0,0,214,49.489v9.067a4.36,4.36,0,0,1,.6-.449,4.519,4.519,0,0,1,.683-.339V51.509l13.9,0a.586.586,0,0,0,.179-1.159.428.428,0,0,0-.142,0H215.28v-.538a.937.937,0,0,1,.919-.938h1.449a1.445,1.445,0,0,0,2.846-.1v-.034l6.118.006v.05a1.445,1.445,0,0,0,2.841.085h1.625a.936.936,0,0,1,.923.943v12.6a.937.937,0,0,1-.92.935H220.941a4.471,4.471,0,0,1-.316.663,4.253,4.253,0,0,1-.472.642h10.969a2.222,2.222,0,0,0,2.191-2.233Zm-14.1-1.018c-.01.062-.07.105-.168.1a.126.126,0,0,1-.129-.087V47.64c.006-.062.058-.109.154-.109h.016c.065.006.123.044.128.087Zm8.973,0a.151.151,0,0,1-.292.018V47.646a.145.145,0,0,1,.054-.1.143.143,0,0,1,.092-.033h.018a.148.148,0,0,1,.129.1Z"/><path class="a" d="M220.509,61.927a3.6,3.6,0,0,0-3.6-3.6,3.511,3.511,0,0,0-1.324.267,3.749,3.749,0,0,0-.564.28,3.576,3.576,0,0,0-1.508,1.91,3.541,3.541,0,0,0-.2,1.141,3.589,3.589,0,0,0,3.4,3.578h.393a3.73,3.73,0,0,0,2.5-1.229,3.5,3.5,0,0,0,.39-.529,3.7,3.7,0,0,0,.261-.546A3.479,3.479,0,0,0,220.509,61.927Zm-1.538-.59-2.3,2.3a.581.581,0,0,1-.82,0L214.8,62.58c-.014-.013-.027-.027-.041-.041a.581.581,0,0,1,.861-.779l.645.645,1.894-1.893a.579.579,0,0,1,.819,0l.005,0A.581.581,0,0,1,218.971,61.337Z" transform="translate(0 -0.139)"/></g></svg>