<svg xmlns="http://www.w3.org/2000/svg" width="36.738" height="14.944" viewBox="0 0 36.738 14.944"><defs><style>.a{fill:#ee2552;fill-rule:evenodd;}</style></defs><path class="a" d="M1309.832,198.166a2.269,2.269,0,1,0,2.295,2.269,2.282,2.282,0,0,0-2.295-2.269Zm21.485,0a2.269,2.269,0,1,0,2.3,2.269,2.282,2.282,0,0,0-2.3-2.269Zm-5.374-4.655-4.563-1.774a13.626,13.626,0,0,0-3.048-.5,9.514,9.514,0,0,0-2.437-.165c-2.732.041-3.4.513-5.709,1.8-.479.3-.463.475.108.552l15.725.571c.251.027.335-.273-.075-.491Zm8.694,9.273a4.111,4.111,0,0,1-6.639,0h-14.848a4.111,4.111,0,0,1-6.65-.018l-2.273-.323a1.568,1.568,0,0,1-1-.635,5.273,5.273,0,0,1-1.156-2.118,14.036,14.036,0,0,1,.36-5.524,1.469,1.469,0,0,1,1.347-1.116,23.1,23.1,0,0,0,5.554-1.749c2.621-1.042,3.574-1.672,6.53-1.761a12.539,12.539,0,0,1,2.614.148,16.7,16.7,0,0,1,3.424.589c1.97.721,3.914,1.52,5.907,2.153l7.7,1.972a8.458,8.458,0,0,1,2.187.857,1.648,1.648,0,0,1,.592.641,3.66,3.66,0,0,1,.167,1.495l-.111,1.125.168.234.007.012a1.4,1.4,0,0,1,.137.825l-.291,1.868a1.276,1.276,0,0,1-1.093,1.078A13.553,13.553,0,0,1,1334.637,202.785Z" transform="translate(-1301.924 -189.527)"/></svg>