<svg xmlns="http://www.w3.org/2000/svg" width="11.333" height="20" viewBox="0 0 11.333 20"><defs><style>.a{fill:#24d1fd;}</style></defs><g transform="translate(0 0)"><path class="a" d="M116.783,53.311h-8.924a1.207,1.207,0,0,0-1.205,1.2v17.6a1.206,1.206,0,0,0,1.205,1.2h8.923a1.2,1.2,0,0,0,1.205-1.2v-17.6A1.205,1.205,0,0,0,116.783,53.311Zm-1.629,1h.333a.334.334,0,1,1,0,.667h-.333a.334.334,0,0,1,0-.667Zm-4.5,0h3.333a.334.334,0,1,1,0,.667h-3.333a.334.334,0,0,1,0-.667Zm3,17.081a.92.92,0,0,1-.92.919h-.828a.92.92,0,0,1-.919-.919v-.161a.921.921,0,0,1,.92-.92h.828a.921.921,0,0,1,.919.92Zm2.926-1.952a.333.333,0,0,1-.333.333h-7.971a.333.333,0,0,1-.333-.333V55.819a.333.333,0,0,1,.333-.333h7.971a.333.333,0,0,1,.333.333Z" transform="translate(-106.654 -53.311)"/><path class="a" d="M112.759,70.631h-.879a.517.517,0,0,0-.517.516v.329a.517.517,0,0,0,.517.517h.881a.516.516,0,0,0,.517-.517l0-.329A.516.516,0,0,0,112.759,70.631Z" transform="translate(-106.654 -53.311)"/></g></svg>