<svg xmlns="http://www.w3.org/2000/svg" width="24.655" height="19.991" viewBox="0 0 24.655 19.991"><defs><style>.a{fill:#ed2529;}</style></defs><g transform="translate(4.924)"><path class="a" d="M650.591,533.655a.952.952,0,0,1-.707-.315l-6.454-7.174a.951.951,0,0,1,.707-1.588h2.631v-5.346a.951.951,0,0,1,.951-.951h5.743a.951.951,0,0,1,.951.951v5.346h2.631a.951.951,0,0,1,.707,1.588L651.3,533.34a.952.952,0,0,1-.707.315Zm-4.318-7.174,4.318,4.8,4.318-4.8h-1.447a.951.951,0,0,1-.951-.951v-5.346h-3.839v5.346a.951.951,0,0,1-.951.951Z" transform="translate(-643.185 -518.28)"/></g><g transform="translate(0 18.088)"><path class="a" d="M429.736,1391.927H406.984a.952.952,0,0,1,0-1.9h22.751a.952.952,0,0,1,0,1.9Z" transform="translate(-406.032 -1390.023)"/></g><path class="a" d="M1955.147-738.039h5.245v6.162h4.043l-6.083,7.31-6.811-7.31h3.606Z" transform="translate(-1945.561 739.156)"/></svg>