<svg xmlns="http://www.w3.org/2000/svg" width="110" height="70" viewBox="0 0 54.239 50.699">
  <g id="Grupo_1" data-name="Grupo 1" transform="translate(0 0)">
    <g id="Grupo_6" data-name="Grupo 6" transform="translate(0 0)">
      <g id="Grupo_3" data-name="Grupo 3" transform="translate(0 0)">
        <path id="Trazado_1" data-name="Trazado 1" d="M473.19,258.425a24.984,24.984,0,0,1,9.92-13.487" transform="translate(-470.007 -243.344)" fill="none" stroke="#fff" stroke-linecap="round" stroke-miterlimit="10" stroke-width="1"/>
        <path id="Trazado_2" data-name="Trazado 2" d="M494.58,371.419" transform="translate(-484.615 -329.723)" fill="none" stroke="#83ba76" stroke-linecap="round" stroke-linejoin="round" stroke-width="2.69"/>
        <path id="Trazado_3" data-name="Trazado 3" d="M601.619,258.54a24.981,24.981,0,0,0-9.954-13.6" transform="translate(-550.918 -243.344)" fill="none" stroke="#fff" stroke-linecap="round" stroke-miterlimit="10" stroke-width="1"/>
        <path id="Trazado_4" data-name="Trazado 4" d="M601.561,371.419" transform="translate(-557.677 -329.723)" fill="none" stroke="#83ba76" stroke-linecap="round" stroke-linejoin="round" stroke-width="2.69"/>
        <g id="Grupo_1-2" data-name="Grupo 1" transform="translate(0 19.495)">
          <path id="Trazado_5" data-name="Trazado 5" d="M465.133,302.507l2.325-1.109-.095.968-1.507.68,1.348.938-.091.928-2.06-1.539-1.585-.156.085-.866Z" transform="translate(-463.368 -301.398)" fill="#fff"/>
          <path id="Trazado_6" data-name="Trazado 6" d="M464.3,316.808a1.764,1.764,0,0,0-.146.186,1.407,1.407,0,0,0-.132.234,1.27,1.27,0,0,0-.088.275,1.092,1.092,0,0,0-.017.313.682.682,0,0,0,.045.191.626.626,0,0,0,.1.169.454.454,0,0,0,.14.116.32.32,0,0,0,.177.033.359.359,0,0,0,.309-.231,2.8,2.8,0,0,0,.175-.665,1.689,1.689,0,0,1,.114-.412,1.245,1.245,0,0,1,.206-.337.985.985,0,0,1,.294-.233,1.014,1.014,0,0,1,.385-.107,1.179,1.179,0,0,1,.454.047,1.044,1.044,0,0,1,.393.226,1.252,1.252,0,0,1,.291.409,1.776,1.776,0,0,1,.145.6,1.992,1.992,0,0,1-.016.515,1.867,1.867,0,0,1-.11.389,1.343,1.343,0,0,1-.149.27q-.079.107-.126.162l-.586-.447c.03-.045.063-.1.1-.154a1.274,1.274,0,0,0,.1-.193,1.252,1.252,0,0,0,.066-.231.967.967,0,0,0,.012-.26.58.58,0,0,0-.044-.176.609.609,0,0,0-.089-.152.412.412,0,0,0-.123-.1.25.25,0,0,0-.142-.031.355.355,0,0,0-.295.23,2,2,0,0,0-.151.577,2.548,2.548,0,0,1-.1.423,1.349,1.349,0,0,1-.2.379,1.068,1.068,0,0,1-.327.284,1.185,1.185,0,0,1-.493.139,1,1,0,0,1-.48-.074,1.2,1.2,0,0,1-.4-.277,1.471,1.471,0,0,1-.285-.438,1.8,1.8,0,0,1-.136-.562,2.338,2.338,0,0,1,.01-.52,2.1,2.1,0,0,1,.107-.431,1.951,1.951,0,0,1,.172-.354,1.845,1.845,0,0,1,.211-.277Z" transform="translate(-463.152 -311.581)" fill="#fff"/>
          <path id="Trazado_7" data-name="Trazado 7" d="M465.251,329.483a1.984,1.984,0,0,1-.038-.8,1.9,1.9,0,0,1,.776-1.262,2.144,2.144,0,0,1,1.533-.377,1.915,1.915,0,0,1,1.269.759,2.073,2.073,0,0,1,.374,1.519,1.92,1.92,0,0,1-.773,1.262,2.137,2.137,0,0,1-1.532.377,1.91,1.91,0,0,1-1.273-.758A1.981,1.981,0,0,1,465.251,329.483Zm.784-.192a1,1,0,0,0,.536.679,1.165,1.165,0,0,0,.421.116,1.416,1.416,0,0,0,.465-.038,1.393,1.393,0,0,0,.43-.182,1.155,1.155,0,0,0,.316-.3,1.021,1.021,0,0,0,.167-.389,1.038,1.038,0,0,0-.016-.459,1.049,1.049,0,0,0-.2-.416.993.993,0,0,0-.33-.27,1.145,1.145,0,0,0-.418-.117,1.467,1.467,0,0,0-.893.22,1.151,1.151,0,0,0-.319.3,1.006,1.006,0,0,0-.172.393A1.033,1.033,0,0,0,466.035,329.29Z" transform="translate(-464.543 -318.9)" fill="#fff"/>
          <path id="Trazado_8" data-name="Trazado 8" d="M471.236,344.25a1.779,1.779,0,0,1-.4-.143,2.032,2.032,0,0,1-.382-.247,2.109,2.109,0,0,1-.335-.344,2.037,2.037,0,0,1-.257-.437,2.063,2.063,0,0,1-.178-.784,1.83,1.83,0,0,1,.133-.73,1.853,1.853,0,0,1,.415-.616,2.265,2.265,0,0,1,1.451-.628,1.911,1.911,0,0,1,.744.115,1.884,1.884,0,0,1,.638.4,1.985,1.985,0,0,1,.46.671,2.076,2.076,0,0,1,.19.925,1.736,1.736,0,0,1-.251.824l-.749-.314a1.414,1.414,0,0,0,.192-.523,1.035,1.035,0,0,0-.088-.569,1.1,1.1,0,0,0-.269-.385,1.01,1.01,0,0,0-.376-.216,1.174,1.174,0,0,0-.438-.048,1.446,1.446,0,0,0-.854.369,1.1,1.1,0,0,0-.257.35,1.016,1.016,0,0,0-.094.412,1.078,1.078,0,0,0,.1.449,1.337,1.337,0,0,0,.18.309,1.068,1.068,0,0,0,.211.2,1.033,1.033,0,0,0,.234.125q.122.046.244.086Z" transform="translate(-467.612 -327.979)" fill="#fff"/>
          <path id="Trazado_9" data-name="Trazado 9" d="M477.117,349.612l.428.745-3.29,1.887-.427-.744Z" transform="translate(-470.443 -334.325)" fill="#fff"/>
          <path id="Trazado_10" data-name="Trazado 10" d="M480.012,356.366l.56.767-2.242,3.358-.554-.757.53-.748-.789-1.078-.873.279-.531-.725Zm-1.288,2.062.885-1.217-1.436.465Z" transform="translate(-472.005 -338.938)" fill="#fff"/>
          <path id="Trazado_11" data-name="Trazado 11" d="M487.478,362.756l.6.614-2.169,2.116,1.267,1.3-.545.532-1.866-1.912Z" transform="translate(-477.912 -343.302)" fill="#fff"/>
          <path id="Trazado_12" data-name="Trazado 12" d="M494.928,369.709l.65.488-.276,2.017,1.841-.844.655.491L495.665,375l-.687-.515,1.4-2.048-1.514.712-.355-.267.212-1.667-1.554,1.912-.655-.491Z" transform="translate(-483.203 -348.05)" fill="#fff"/>
          <path id="Trazado_13" data-name="Trazado 13" d="M507.189,377.482l2.3,1.205-.349.665-1.536-.806-.343.655,1.193.626-.338.644-1.193-.626-.381.725,1.646.864-.352.669-2.406-1.263Z" transform="translate(-492.022 -353.359)" fill="#fff"/>
          <path id="Trazado_14" data-name="Trazado 14" d="M516.964,381.982l.773.268.747,2.864.806-2.327.8.277-1.242,3.583-.736-.255-.769-2.92-.822,2.369-.8-.277Z" transform="translate(-499.054 -356.432)" fill="#fff"/>
          <path id="Trazado_15" data-name="Trazado 15" d="M531.172,386.594l-1.209-.218.134-.744,3.263.59-.135.744-1.2-.217-.54,2.987-.85-.154Z" transform="translate(-508.78 -358.924)" fill="#fff"/>
          <path id="Trazado_16" data-name="Trazado 16" d="M541.273,387.511l2.59.106-.031.75L542.1,388.3l-.03.739,1.346.055-.03.728-1.346-.056-.034.818,1.858.076-.031.756-2.715-.112Z" transform="translate(-516.398 -360.208)" fill="#fff"/>
          <path id="Trazado_17" data-name="Trazado 17" d="M554.507,387.176l1.4-.192a1.646,1.646,0,0,1,.587.014,1.2,1.2,0,0,1,.449.2,1.026,1.026,0,0,1,.3.341,1.294,1.294,0,0,1,.145.445,1.258,1.258,0,0,1-.073.661,1.2,1.2,0,0,1-.393.5l1.04,1.389-.935.128-.888-1.284-.473.065.189,1.38-.828.114Zm1.584,1.51a.478.478,0,0,0,.439-.565.5.5,0,0,0-.185-.348.507.507,0,0,0-.39-.084l-.523.072.136,1Z" transform="translate(-525.542 -359.835)" fill="#fff"/>
          <path id="Trazado_18" data-name="Trazado 18" d="M564.709,384.589l2.5-.7.2.723-1.671.467.2.712,1.3-.363.2.7-1.3.363.221.789,1.79-.5.2.729-2.617.732Z" transform="translate(-532.509 -357.736)" fill="#fff"/>
          <path id="Trazado_19" data-name="Trazado 19" d="M576.089,383.937a1.822,1.822,0,0,0,.224.08,1.447,1.447,0,0,0,.263.05,1.347,1.347,0,0,0,.289,0,1.113,1.113,0,0,0,.3-.084.663.663,0,0,0,.166-.1.614.614,0,0,0,.13-.146.449.449,0,0,0,.065-.171.323.323,0,0,0-.024-.178.361.361,0,0,0-.318-.219,2.826,2.826,0,0,0-.686.046,1.686,1.686,0,0,1-.427.024,1.243,1.243,0,0,1-.385-.087.988.988,0,0,1-.315-.2,1,1,0,0,1-.224-.331,1.179,1.179,0,0,1-.1-.446,1.043,1.043,0,0,1,.089-.445,1.242,1.242,0,0,1,.3-.406,1.78,1.78,0,0,1,.523-.329,1.99,1.99,0,0,1,.493-.149,1.864,1.864,0,0,1,.4-.02,1.309,1.309,0,0,1,.3.055c.084.028.149.05.194.068l-.237.7c-.051-.015-.111-.029-.177-.044a1.364,1.364,0,0,0-.213-.029,1.33,1.33,0,0,0-.24.011.945.945,0,0,0-.251.072.6.6,0,0,0-.153.1.633.633,0,0,0-.116.134.4.4,0,0,0-.059.15.248.248,0,0,0,.016.145.357.357,0,0,0,.312.206,2.01,2.01,0,0,0,.6-.041,2.522,2.522,0,0,1,.434-.036,1.356,1.356,0,0,1,.422.068,1.064,1.064,0,0,1,.374.219,1.19,1.19,0,0,1,.289.423,1,1,0,0,1,.083.478,1.208,1.208,0,0,1-.135.468,1.454,1.454,0,0,1-.325.41,1.794,1.794,0,0,1-.49.308,2.284,2.284,0,0,1-.5.156,2.11,2.11,0,0,1-.443.037,1.911,1.911,0,0,1-.391-.051,1.831,1.831,0,0,1-.33-.111Z" transform="translate(-539.57 -355.632)" fill="#fff"/>
          <path id="Trazado_20" data-name="Trazado 20" d="M583.309,377.173l1.182-.715a1.58,1.58,0,0,1,.568-.224,1.193,1.193,0,0,1,.492.017,1.045,1.045,0,0,1,.406.21,1.4,1.4,0,0,1,.3.354,1.29,1.29,0,0,1,.188.514,1.1,1.1,0,0,1-.045.475,1.247,1.247,0,0,1-.232.413,1.509,1.509,0,0,1-.377.321l-.5.3.692,1.144-.715.432Zm2.056.816a.5.5,0,0,0,.248-.32.524.524,0,0,0-.076-.4.548.548,0,0,0-.323-.26.5.5,0,0,0-.4.068l-.423.256.55.909Z" transform="translate(-545.212 -352.494)" fill="#fff"/>
          <path id="Trazado_21" data-name="Trazado 21" d="M596.863,372.269a1.981,1.981,0,0,1-.7.387,1.91,1.91,0,0,1-1.475-.135,2.073,2.073,0,0,1-.623-.5,2.051,2.051,0,0,1-.394-.7,1.909,1.909,0,0,1,.118-1.474,2.055,2.055,0,0,1,1.195-1.008,1.909,1.909,0,0,1,1.474.133,2.143,2.143,0,0,1,1.017,1.206,1.953,1.953,0,0,1,.091.752,1.928,1.928,0,0,1-.207.725A1.97,1.97,0,0,1,596.863,372.269Zm-.521-.617a1,1,0,0,0,.371-.781,1.167,1.167,0,0,0-.082-.429,1.419,1.419,0,0,0-.241-.4,1.4,1.4,0,0,0-.354-.3,1.131,1.131,0,0,0-.406-.152,1,1,0,0,0-.424.023,1.03,1.03,0,0,0-.4.218,1.045,1.045,0,0,0-.285.363.985.985,0,0,0-.1.416,1.14,1.14,0,0,0,.08.426,1.464,1.464,0,0,0,.594.7,1.169,1.169,0,0,0,.408.154,1.013,1.013,0,0,0,.837-.238Z" transform="translate(-552.225 -347.39)" fill="#fff"/>
          <path id="Trazado_22" data-name="Trazado 22" d="M601.527,360.17l.529-.625,2.941.335-1.88-1.589.548-.647,2.9,2.448-.5.595-3-.334,1.915,1.619-.547.647Z" transform="translate(-557.654 -339.81)" fill="#fff"/>
          <path id="Trazado_23" data-name="Trazado 23" d="M612.361,353a1.765,1.765,0,0,0,.229-.062,1.441,1.441,0,0,0,.244-.11,1.281,1.281,0,0,0,.235-.17,1.087,1.087,0,0,0,.2-.242.684.684,0,0,0,.077-.179.631.631,0,0,0,.023-.193.432.432,0,0,0-.044-.178.317.317,0,0,0-.123-.132.36.36,0,0,0-.385,0,2.786,2.786,0,0,0-.536.431,1.7,1.7,0,0,1-.336.264,1.27,1.27,0,0,1-.366.149.988.988,0,0,1-.375.012,1,1,0,0,1-.373-.143,1.2,1.2,0,0,1-.338-.308,1.05,1.05,0,0,1-.181-.416,1.252,1.252,0,0,1,.008-.5,1.8,1.8,0,0,1,.241-.57,1.978,1.978,0,0,1,.319-.4A1.832,1.832,0,0,1,611.2,350a1.277,1.277,0,0,1,.279-.128c.085-.026.151-.044.2-.055l.206.707q-.077.027-.171.065a1.4,1.4,0,0,0-.191.1,1.2,1.2,0,0,0-.19.147.916.916,0,0,0-.165.2.6.6,0,0,0-.07.167.612.612,0,0,0-.017.176.4.4,0,0,0,.037.156.245.245,0,0,0,.1.109.354.354,0,0,0,.373-.01,2.006,2.006,0,0,0,.465-.375,2.507,2.507,0,0,1,.335-.278,1.334,1.334,0,0,1,.385-.186,1.059,1.059,0,0,1,.432-.035,1.193,1.193,0,0,1,.479.182.991.991,0,0,1,.341.344,1.193,1.193,0,0,1,.158.46,1.471,1.471,0,0,1-.031.522,1.8,1.8,0,0,1-.224.532,2.3,2.3,0,0,1-.318.412,2.108,2.108,0,0,1-.341.284,1.9,1.9,0,0,1-.349.182,1.865,1.865,0,0,1-.334.1Z" transform="translate(-563.637 -334.467)" fill="#fff"/>
          <path id="Trazado_24" data-name="Trazado 24" d="M615.616,342.905l.377-.871,4.032.235-.373.861-.914-.08-.531,1.226.683.612-.358.824Zm2.431.068-1.5-.147,1.127,1Z" transform="translate(-567.275 -329.15)" fill="#fff"/>
          <path id="Trazado_25" data-name="Trazado 25" d="M618.671,332.129l.364-1.374a1.884,1.884,0,0,1,.233-.556,1.141,1.141,0,0,1,.313-.329.81.81,0,0,1,.362-.134,1.064,1.064,0,0,1,.378.029.757.757,0,0,1,.294.146.971.971,0,0,1,.191.209.743.743,0,0,1,.1.222.682.682,0,0,1,.028.181,1.27,1.27,0,0,1,.141-.207.921.921,0,0,1,.229-.2.938.938,0,0,1,.321-.124.892.892,0,0,1,.4.022,1.091,1.091,0,0,1,.457.23.9.9,0,0,1,.248.371,1.288,1.288,0,0,1,.065.5,2.889,2.889,0,0,1-.1.611l-.363,1.374Zm1.811-.908a.8.8,0,0,0,.028-.189.5.5,0,0,0-.027-.178.369.369,0,0,0-.1-.146.405.405,0,0,0-.183-.1.428.428,0,0,0-.212-.009.366.366,0,0,0-.157.082.5.5,0,0,0-.109.145.963.963,0,0,0-.067.173l-.129.49.824.218Zm1.575.365a1.586,1.586,0,0,0,.038-.2.616.616,0,0,0-.009-.22.444.444,0,0,0-.1-.194.471.471,0,0,0-.242-.132.425.425,0,0,0-.444.112.672.672,0,0,0-.126.185,1.321,1.321,0,0,0-.073.2l-.143.539.956.254Z" transform="translate(-569.362 -320.748)" fill="#fff"/>
          <path id="Trazado_26" data-name="Trazado 26" d="M621.2,322.278l.106-.852,3.008.375.224-1.8.756.094-.331,2.652Z" transform="translate(-571.086 -314.103)" fill="#fff"/>
          <path id="Trazado_27" data-name="Trazado 27" d="M622.228,311.907l-.016-2.592.75,0,.01,1.734.739,0-.008-1.348.727,0,.008,1.348.819-.005-.011-1.859.757,0,.016,2.718Z" transform="translate(-571.78 -306.704)" fill="#fff"/>
        </g>
        <g id="Grupo_2" data-name="Grupo 2" transform="translate(11.255)">
          <path id="Trazado_28" data-name="Trazado 28" d="M500.217,259.187a1.707,1.707,0,0,0,.237.01,1.439,1.439,0,0,0,.267-.029,1.328,1.328,0,0,0,.275-.089,1.066,1.066,0,0,0,.263-.169.686.686,0,0,0,.128-.146.632.632,0,0,0,.08-.178.441.441,0,0,0,.013-.182.314.314,0,0,0-.076-.163.36.36,0,0,0-.368-.116,2.789,2.789,0,0,0-.642.246,1.7,1.7,0,0,1-.4.148,1.261,1.261,0,0,1-.393.03.974.974,0,0,1-.361-.1,1.008,1.008,0,0,1-.311-.25,1.191,1.191,0,0,1-.228-.4,1.051,1.051,0,0,1-.045-.451,1.254,1.254,0,0,1,.162-.476,1.807,1.807,0,0,1,.4-.468,1.969,1.969,0,0,1,.428-.287,1.835,1.835,0,0,1,.38-.138,1.33,1.33,0,0,1,.305-.036c.088,0,.157,0,.205.008l-.022.736c-.053,0-.114,0-.182.01a1.259,1.259,0,0,0-.213.036,1.3,1.3,0,0,0-.226.081.955.955,0,0,0-.219.143.577.577,0,0,0-.117.138.629.629,0,0,0-.072.162.41.41,0,0,0-.012.16.252.252,0,0,0,.058.134.356.356,0,0,0,.359.1,2.022,2.022,0,0,0,.558-.214,2.451,2.451,0,0,1,.4-.162,1.357,1.357,0,0,1,.424-.06,1.082,1.082,0,0,1,.422.1,1.189,1.189,0,0,1,.4.32,1,1,0,0,1,.22.432,1.2,1.2,0,0,1,.008.487,1.438,1.438,0,0,1-.19.487,1.79,1.79,0,0,1-.377.438,2.278,2.278,0,0,1-.428.3,2.107,2.107,0,0,1-.412.165,1.9,1.9,0,0,1-.388.067,1.867,1.867,0,0,1-.348-.009Z" transform="translate(-498.649 -250.859)" fill="#fff"/>
          <path id="Trazado_29" data-name="Trazado 29" d="M511.652,252.292a1.966,1.966,0,0,1-.755.254,1.9,1.9,0,0,1-1.426-.4,2.056,2.056,0,0,1-.521-.609,2.035,2.035,0,0,1-.261-.761,1.91,1.91,0,0,1,.382-1.429,2.067,2.067,0,0,1,1.358-.775,1.913,1.913,0,0,1,1.425.4,2.14,2.14,0,0,1,.783,1.37,1.911,1.911,0,0,1-.381,1.431A1.97,1.97,0,0,1,511.652,252.292Zm-.4-.7a1.018,1.018,0,0,0,.342-.306,1.029,1.029,0,0,0,.164-.395,1.165,1.165,0,0,0,0-.437,1.432,1.432,0,0,0-.164-.436,1.406,1.406,0,0,0-.293-.363,1.124,1.124,0,0,0-.373-.223,1,1,0,0,0-.42-.055,1.046,1.046,0,0,0-.437.141,1.066,1.066,0,0,0-.346.305,1,1,0,0,0-.169.392,1.12,1.12,0,0,0,0,.434,1.39,1.39,0,0,0,.164.437,1.42,1.42,0,0,0,.292.363,1.156,1.156,0,0,0,.374.225,1.015,1.015,0,0,0,.426.058A1.033,1.033,0,0,0,511.253,251.591Z" transform="translate(-505.494 -245.816)" fill="#fff"/>
          <path id="Trazado_30" data-name="Trazado 30" d="M522.22,246.394a1.743,1.743,0,0,0,.217.1,1.5,1.5,0,0,0,.258.071,1.369,1.369,0,0,0,.289.017,1.1,1.1,0,0,0,.306-.061.7.7,0,0,0,.173-.09.621.621,0,0,0,.14-.136.446.446,0,0,0,.078-.165.316.316,0,0,0-.011-.179.36.36,0,0,0-.3-.242,2.785,2.785,0,0,0-.688-.007,1.715,1.715,0,0,1-.428-.009,1.236,1.236,0,0,1-.377-.117.973.973,0,0,1-.3-.227,1,1,0,0,1-.2-.347,1.187,1.187,0,0,1-.066-.452,1.033,1.033,0,0,1,.123-.437,1.246,1.246,0,0,1,.325-.383,1.812,1.812,0,0,1,.547-.288,2,2,0,0,1,.5-.11,1.881,1.881,0,0,1,.4.011,1.269,1.269,0,0,1,.3.078q.123.05.188.082l-.29.677c-.05-.018-.108-.038-.174-.057a1.288,1.288,0,0,0-.211-.044,1.215,1.215,0,0,0-.24-.007.966.966,0,0,0-.256.052.6.6,0,0,0-.16.085.623.623,0,0,0-.125.125.393.393,0,0,0-.07.145.252.252,0,0,0,0,.146.357.357,0,0,0,.3.229,1.985,1.985,0,0,0,.6,0,2.551,2.551,0,0,1,.435,0,1.371,1.371,0,0,1,.417.1,1.06,1.06,0,0,1,.355.247,1.182,1.182,0,0,1,.255.444,1,1,0,0,1,.047.483,1.207,1.207,0,0,1-.171.456,1.448,1.448,0,0,1-.354.384,1.8,1.8,0,0,1-.511.27,2.256,2.256,0,0,1-.507.117,2.089,2.089,0,0,1-.444,0,1.887,1.887,0,0,1-.386-.081,1.848,1.848,0,0,1-.32-.136Z" transform="translate(-514.129 -242.241)" fill="#fff"/>
          <path id="Trazado_31" data-name="Trazado 31" d="M532.089,241.275l-1.209.212-.131-.744,3.265-.573.131.745-1.2.211.524,2.99-.851.149Z" transform="translate(-520.571 -240.088)" fill="#fff"/>
          <path id="Trazado_32" data-name="Trazado 32" d="M544.089,239.934l2.593-.024.007.75-1.734.016.007.739,1.348-.013.007.727-1.348.013.008.819,1.86-.017.007.756-2.717.026Z" transform="translate(-529.682 -239.91)" fill="#fff"/>
          <path id="Trazado_33" data-name="Trazado 33" d="M554.734,240.118l.807.138,1.2,2.7.415-2.426.835.143-.639,3.738-.768-.132-1.237-2.755L554.93,244l-.835-.143Z" transform="translate(-536.515 -240.052)" fill="#fff"/>
          <path id="Trazado_34" data-name="Trazado 34" d="M567.327,242.972l.819.259L567,246.846l-.819-.26Z" transform="translate(-544.771 -242.001)" fill="#fff"/>
          <path id="Trazado_35" data-name="Trazado 35" d="M572.247,244.856l1.292.592a1.884,1.884,0,0,1,.509.325,1.135,1.135,0,0,1,.27.364.8.8,0,0,1,.07.379,1.044,1.044,0,0,1-.093.367.764.764,0,0,1-.193.265,1.007,1.007,0,0,1-.239.153.753.753,0,0,1-.235.064.727.727,0,0,1-.184,0,1.241,1.241,0,0,1,.18.173.913.913,0,0,1,.159.26.938.938,0,0,1,.068.337.888.888,0,0,1-.09.394,1.09,1.09,0,0,1-.3.411.9.9,0,0,1-.408.182,1.307,1.307,0,0,1-.5-.022,2.857,2.857,0,0,1-.586-.2l-1.292-.592Zm-.039,3.429a1.855,1.855,0,0,0,.192.072.6.6,0,0,0,.218.028.449.449,0,0,0,.21-.066.474.474,0,0,0,.17-.216.425.425,0,0,0-.034-.457.672.672,0,0,0-.16-.155,1.254,1.254,0,0,0-.183-.105l-.507-.232-.412.9Zm.626-1.49a.814.814,0,0,0,.183.059.5.5,0,0,0,.179,0,.372.372,0,0,0,.16-.07.412.412,0,0,0,.125-.165.43.43,0,0,0,.046-.207.367.367,0,0,0-.055-.169.5.5,0,0,0-.124-.132.909.909,0,0,0-.16-.1l-.46-.211-.356.775Z" transform="translate(-547.833 -243.288)" fill="#fff"/>
          <path id="Trazado_36" data-name="Trazado 36" d="M582.281,250.361l.713.478-1.688,2.517,1.507,1.01-.424.633-2.22-1.488Z" transform="translate(-554.322 -247.047)" fill="#fff"/>
          <path id="Trazado_37" data-name="Trazado 37" d="M590.618,256.953l1.9,1.761-.51.551-1.273-1.178-.5.542.989.915-.495.534-.989-.915-.556.6,1.365,1.263-.514.555-2-1.845Z" transform="translate(-559.7 -251.549)" fill="#fff"/>
        </g>
      </g>
      <g id="Grupo_4" data-name="Grupo 4" transform="translate(19.165 10.01)">
        <path id="Trazado_38" data-name="Trazado 38" d="M526.051,275.353a4.987,4.987,0,0,0-2.013,6.342.491.491,0,1,0,.895-.4,4,4,0,0,1,5.167-5.347,4.21,4.21,0,0,0-3.521,1.6,4,4,0,0,0,6.687.392,8.181,8.181,0,0,1,5.543-3.241,11.188,11.188,0,0,0-9.267-3.119A4.006,4.006,0,0,0,526.051,275.353Z" transform="translate(-523.597 -271.481)" fill="#669c1d"/>
      </g>
      <g id="Grupo_5" data-name="Grupo 5" transform="translate(10.985 17.54)">
        <path id="Trazado_39" data-name="Trazado 39" d="M589.5,313.22a.268.268,0,0,0,0,.536.875.875,0,0,1,.88.88.245.245,0,0,0,.268.255.25.25,0,0,0,.268-.271,1.437,1.437,0,0,0-.42-.993,1.361,1.361,0,0,0-1-.408" transform="translate(-560.247 -307.516)" fill="#fff"/>
        <path id="Trazado_40" data-name="Trazado 40" d="M594.255,307.155a2.626,2.626,0,0,0-1.9-.777.239.239,0,0,0-.255.255.245.245,0,0,0,.255.268,2.117,2.117,0,0,1,1.53.626,2.049,2.049,0,0,1,.626,1.518.251.251,0,0,0,.268.268.245.245,0,0,0,.255-.268,2.584,2.584,0,0,0-.778-1.89" transform="translate(-562.199 -302.843)" fill="#fff"/>
        <path id="Trazado_41" data-name="Trazado 41" d="M590.932,309.8a.251.251,0,0,0-.283.268.245.245,0,0,0,.268.255,1.527,1.527,0,0,1,1.518,1.518.245.245,0,0,0,.255.268.248.248,0,0,0,.268-.268,2.067,2.067,0,0,0-2.027-2.042" transform="translate(-561.21 -305.18)" fill="#fff"/>
        <path id="Trazado_42" data-name="Trazado 42" d="M515.473,326.563a.623.623,0,0,0-.217-.51,2.731,2.731,0,0,0-.715-.4v1.723q.932-.153.932-.817" transform="translate(-509.232 -316.01)" fill="#fff"/>
        <path id="Trazado_43" data-name="Trazado 43" d="M511.8,346.561a.607.607,0,0,0,.447-.179.656.656,0,0,0,.192-.459.613.613,0,0,0-.192-.447.606.606,0,0,0-.447-.178.678.678,0,0,0-.459.178.633.633,0,0,0-.179.447.612.612,0,0,0,.638.638m0-.88a.214.214,0,0,1,.243.243q0,.255-.243.255t-.23-.255q0-.243.23-.243" transform="translate(-506.924 -329.423)" fill="#fff"/>
        <path id="Trazado_44" data-name="Trazado 44" d="M510.363,315.756a1.181,1.181,0,0,0-.664.268.561.561,0,0,0-.23.485.779.779,0,0,0,.192.51,1.893,1.893,0,0,0,.7.4Z" transform="translate(-505.769 -309.248)" fill="#fff"/>
        <path id="Trazado_45" data-name="Trazado 45" d="M506.922,295.676a1.543,1.543,0,0,0-.983-.446h-6.7a1.541,1.541,0,0,0-.982.446,1.5,1.5,0,0,0-.46,1.1V312.2a1.513,1.513,0,0,0,.46,1.11,1.468,1.468,0,0,0,.982.446v.013h6.7v-.013a1.47,1.47,0,0,0,.983-.446,1.514,1.514,0,0,0,.459-1.11V296.774a1.5,1.5,0,0,0-.459-1.1m-.728,16.526a.407.407,0,0,1-.1.281.379.379,0,0,1-.268.115h-6.47a.378.378,0,0,1-.268-.115.407.407,0,0,1-.1-.281v-1.366h7.21Zm-4.262-7.746a3.069,3.069,0,0,1-1.289-.8,1.76,1.76,0,0,1-.4-1.148,1.5,1.5,0,0,1,.574-1.212,2.641,2.641,0,0,1,1.57-.574v-.906h.715v.88a5.782,5.782,0,0,1,2.054.434l-.383.983a6.242,6.242,0,0,0-1.672-.408v1.952l.4.166a3.67,3.67,0,0,1,1.417.829,1.506,1.506,0,0,1,.383,1.072,1.614,1.614,0,0,1-.562,1.264,2.865,2.865,0,0,1-1.633.625v1.161h-.715v-1.123a5.283,5.283,0,0,1-2.2-.421V306.1a5.844,5.844,0,0,0,1.072.383,4.773,4.773,0,0,0,1.123.153v-2Zm4.262-6.61h-7.21v-1.072a.424.424,0,0,1,.1-.268.381.381,0,0,1,.268-.115h6.47a.382.382,0,0,1,.268.115.424.424,0,0,1,.1.268Z" transform="translate(-497.798 -295.23)" fill="#fff"/>
        <rect id="Rectángulo_1" data-name="Rectángulo 1" width="1.123" height="0.408" transform="translate(4.607 1.748)" fill="#fff"/>
        <path id="Trazado_46" data-name="Trazado 46" d="M510.28,300.864a.166.166,0,1,0,.166.166.147.147,0,0,0-.166-.166" transform="translate(-506.209 -299.078)" fill="#fff"/>
        <path id="Trazado_47" data-name="Trazado 47" d="M551.566,314.873a1.116,1.116,0,0,0-.345-.88,1.384,1.384,0,0,0-1-.319,3.234,3.234,0,0,0-1.455.294l.332.766a2.438,2.438,0,0,1,.919-.255.355.355,0,0,1,.4.408v.051l-.549.013a2.194,2.194,0,0,0-1.072.294.914.914,0,0,0-.37.791,1.069,1.069,0,0,0,.281.791.958.958,0,0,0,.727.281,1.749,1.749,0,0,0,.625-.1,1.405,1.405,0,0,0,.472-.4h.026l.217.447h.791v-2.182m-1.136.957a.39.39,0,0,1-.153.332.484.484,0,0,1-.357.14q-.319,0-.319-.307,0-.4.562-.421l.268-.013v.268m3.063-3.343h-1.149v4.568h1.149Zm-16.436.8a2.253,2.253,0,0,0-1.6-.523h-1.48v4.288h1.391a2.3,2.3,0,0,0,1.659-.587,2.224,2.224,0,0,0,.587-1.646,2.044,2.044,0,0,0-.561-1.531m-1.582.408a.836.836,0,0,1,.7.294,1.244,1.244,0,0,1,.242.868,1.462,1.462,0,0,1-.255.931.9.9,0,0,1-.765.307h-.255v-2.4h.332m3.994.038H538.32v3.318h1.148Zm-.574-1.34a.674.674,0,0,0-.459.127.468.468,0,0,0-.141.383q0,.5.6.5t.613-.5a.518.518,0,0,0-.14-.383.7.7,0,0,0-.472-.127m6.164,1.34h-1.149v3.318h1.149Zm.549.383v.472h.408v1.366a1.23,1.23,0,0,0,.256.868,1.048,1.048,0,0,0,.829.281l.485-.038a2.613,2.613,0,0,0,.447-.14v-.842a1.662,1.662,0,0,1-.549.115.282.282,0,0,1-.319-.319v-1.289h.817v-.855h-.817v-.676h-.74l-.306.7-.51.357m-2.207.166v-.549h-1.161l-.638-.064a1.738,1.738,0,0,0-1.059.294,1.035,1.035,0,0,0-.37.842,1.1,1.1,0,0,0,.153.6.908.908,0,0,0,.408.357.949.949,0,0,0-.357.281.5.5,0,0,0-.089.268.41.41,0,0,0,.115.281.853.853,0,0,0,.268.217q-.74.166-.74.765a.741.741,0,0,0,.383.676,2.112,2.112,0,0,0,1.085.243,2.59,2.59,0,0,0,1.455-.344,1.056,1.056,0,0,0,.523-.945q0-.932-1.123-.932H541.7a1.3,1.3,0,0,1-.357-.051q-.14-.039-.14-.127a.266.266,0,0,1,.038-.14l.294.013a1.722,1.722,0,0,0,1.123-.294.963.963,0,0,0,.383-.829.785.785,0,0,0-.1-.4l.459-.166m-1.442.536a.749.749,0,0,1-.089.383.314.314,0,0,1-.255.128q-.357,0-.357-.51t.357-.51q.345,0,.345.51m-.906,2.871a.249.249,0,0,1-.026-.447.631.631,0,0,1,.307-.077h.446a1.421,1.421,0,0,1,.447.051c.1.043.153.1.153.179q0,.166-.255.268a1.634,1.634,0,0,1-.664.1.92.92,0,0,1-.408-.076m3.9-5.168a.7.7,0,0,0-.472-.127.645.645,0,0,0-.459.127.447.447,0,0,0-.14.383q0,.5.6.5t.613-.5a.518.518,0,0,0-.141-.383m-1.187-4.39a1.487,1.487,0,0,0-.6.128.879.879,0,0,0-.4.344H542.7l-.14-.408h-.867v3.318h1.148v-1.455a1.707,1.707,0,0,1,.127-.791.461.461,0,0,1,.421-.23.318.318,0,0,1,.306.166,1.082,1.082,0,0,1,.089.5v1.812h1.148V309.36a1.284,1.284,0,0,0-.306-.906,1.157,1.157,0,0,0-.855-.319m-4.4.817a.361.361,0,0,1,.408.408v.051l-.562.013a2.036,2.036,0,0,0-1.072.294.894.894,0,0,0-.37.791,1.069,1.069,0,0,0,.281.791.983.983,0,0,0,.727.281,1.416,1.416,0,0,0,.625-.115,1.119,1.119,0,0,0,.472-.383h.026l.217.434h.791v-2.169a1.183,1.183,0,0,0-.344-.893,1.444,1.444,0,0,0-1-.319,3.073,3.073,0,0,0-1.455.306l.332.753a2.308,2.308,0,0,1,.919-.243m.408,1.085v.255a.425.425,0,0,1-.153.345.465.465,0,0,1-.344.127q-.332,0-.332-.306,0-.383.562-.408l.268-.013m-3-2.539a2.5,2.5,0,0,0-1.3-.255h-1.493v4.275h1.672a1.943,1.943,0,0,0,1.187-.332,1.114,1.114,0,0,0,.434-.919,1.015,1.015,0,0,0-.179-.638.986.986,0,0,0-.574-.357v-.026a.766.766,0,0,0,.485-.332.959.959,0,0,0,.191-.613.871.871,0,0,0-.421-.8m-.906,1.276a.573.573,0,0,1-.383.1h-.344v-.766h.319q.549,0,.549.357a.353.353,0,0,1-.14.306m-.345.957a.688.688,0,0,1,.421.115.39.39,0,0,1,.14.319q0,.459-.536.459h-.408v-.893h.383m-.064-3.777a.518.518,0,0,0-.14-.383,1.416,1.416,0,0,0-.51-.293,1.308,1.308,0,0,1-.332-.14.368.368,0,0,1-.14-.14.328.328,0,0,1-.051-.2.293.293,0,0,1,.127-.255.5.5,0,0,1,.332-.089,1.47,1.47,0,0,1,.562.115l.089-.23a1.475,1.475,0,0,0-.638-.127.93.93,0,0,0-.549.153.556.556,0,0,0-.2.434.63.63,0,0,0,.141.421,1.228,1.228,0,0,0,.472.281l.344.14a.414.414,0,0,1,.166.153.3.3,0,0,1,.051.191.363.363,0,0,1-.14.294.689.689,0,0,1-.408.1,1.583,1.583,0,0,1-.332-.038l-.319-.089v.256a1.453,1.453,0,0,0,.638.115,1,1,0,0,0,.613-.179.561.561,0,0,0,.23-.485m2.22-1.429a.983.983,0,0,0-.778-.319,1.012,1.012,0,0,0-.8.306,1.562,1.562,0,0,0,0,1.787,1.125,1.125,0,0,0,1.582-.013,1.28,1.28,0,0,0,.293-.88,1.252,1.252,0,0,0-.293-.88m-.778-.076a.687.687,0,0,1,.574.242,1.085,1.085,0,0,1,.2.715,1.108,1.108,0,0,1-.2.727.725.725,0,0,1-.587.243.748.748,0,0,1-.587-.243,1.108,1.108,0,0,1-.2-.727,1.085,1.085,0,0,1,.2-.715.74.74,0,0,1,.6-.242m7.2-.089a.533.533,0,0,0-.2.434.574.574,0,0,0,.141.421,1.18,1.18,0,0,0,.459.281l.357.14a.421.421,0,0,1,.153.153.3.3,0,0,1,.051.191.341.341,0,0,1-.14.294.688.688,0,0,1-.408.1,1.578,1.578,0,0,1-.332-.038l-.319-.089v.256a1.452,1.452,0,0,0,.638.115,1,1,0,0,0,.613-.179.56.56,0,0,0,.229-.485.518.518,0,0,0-.14-.383,1.364,1.364,0,0,0-.51-.293,1.058,1.058,0,0,1-.319-.14.277.277,0,0,1-.153-.14.325.325,0,0,1-.051-.2.293.293,0,0,1,.128-.255.5.5,0,0,1,.332-.089,1.471,1.471,0,0,1,.562.115l.089-.23a1.472,1.472,0,0,0-.638-.127.838.838,0,0,0-.536.153m-1.684-.153a1.061,1.061,0,0,0-.8.306,1.562,1.562,0,0,0,0,1.787,1.039,1.039,0,0,0,.8.319,1,1,0,0,0,.791-.332,1.287,1.287,0,0,0,.281-.88,1.23,1.23,0,0,0-.281-.88,1,1,0,0,0-.791-.319m0,.243a.7.7,0,0,1,.587.242,1.151,1.151,0,0,1,.2.715,1.172,1.172,0,0,1-.2.727.832.832,0,0,1-1.174,0,1.108,1.108,0,0,1-.2-.727,1.085,1.085,0,0,1,.2-.715.7.7,0,0,1,.587-.242m-1.863.051h.013l-.026,2.08h.268V304.23H540.4l-.74,1.94h-.013l-.74-1.94H538.5v2.348h.242v-1.493a4.492,4.492,0,0,0-.025-.587h.013l.8,2.08h.217l.8-2.08m8.69,4.1a1.993,1.993,0,0,0,0,2.514,1.827,1.827,0,0,0,2.437.013,1.8,1.8,0,0,0,.434-1.263,1.975,1.975,0,0,0-.2-.919,1.519,1.519,0,0,0-.574-.587,1.772,1.772,0,0,0-.868-.217,1.629,1.629,0,0,0-1.225.459m.829.613a.446.446,0,0,1,.766,0,1.9,1.9,0,0,1,0,1.3.446.446,0,0,1-.766,0,1.489,1.489,0,0,1-.115-.651,1.438,1.438,0,0,1,.115-.651m-2.756-.166a1.134,1.134,0,0,1,.357.051l.383.153.345-.855a2.5,2.5,0,0,0-1.085-.255,1.594,1.594,0,0,0-1.748,1.736,1.743,1.743,0,0,0,.421,1.263,1.646,1.646,0,0,0,1.238.447,1.885,1.885,0,0,0,1.059-.294v-.919a1.693,1.693,0,0,1-.97.293q-.587,0-.587-.791a1.051,1.051,0,0,1,.153-.613.5.5,0,0,1,.434-.217m1.123-4.811h-.281v1.531a.605.605,0,0,1-.153.447.6.6,0,0,1-.459.166.7.7,0,0,1-.472-.153.652.652,0,0,1-.153-.459V304.23h-.281v1.519a.845.845,0,0,0,.23.625.9.9,0,0,0,.664.243.926.926,0,0,0,.664-.23.836.836,0,0,0,.242-.638V304.23m.842.383h.013l1.289,1.965h.306V304.23h-.255l.025,1.965h-.013l-1.276-1.965h-.319v2.348h.255v-1.327a6.094,6.094,0,0,0-.025-.638" transform="translate(-522.509 -301.359)" fill="#fff"/>
      </g>
    </g>
  </g>
</svg>
