<svg id="Grupo_12" data-name="Grupo 12" xmlns="http://www.w3.org/2000/svg" width="110" height="70" viewBox="0 0 54.24 50.698">
  <path id="Trazado_48" data-name="Trazado 48" d="M44.233,252.966a24.983,24.983,0,0,1,9.92-13.487" transform="translate(-41.05 -237.885)" fill="none" stroke="#5d5c5c" stroke-linecap="round" stroke-miterlimit="10" stroke-width="1"/>
  <path id="Trazado_49" data-name="Trazado 49" d="M65.624,365.96" transform="translate(-55.659 -324.264)" fill="none" stroke="#83ba76" stroke-linecap="round" stroke-linejoin="round" stroke-width="2.69"/>
  <path id="Trazado_50" data-name="Trazado 50" d="M172.662,253.081a24.981,24.981,0,0,0-9.954-13.6" transform="translate(-121.961 -237.885)" fill="none" stroke="#5d5c5c" stroke-linecap="round" stroke-miterlimit="10" stroke-width="1"/>
  <path id="Trazado_51" data-name="Trazado 51" d="M172.6,365.96" transform="translate(-128.72 -324.264)" fill="none" stroke="#83ba76" stroke-linecap="round" stroke-linejoin="round" stroke-width="2.69"/>
  <g id="Grupo_8" data-name="Grupo 8" transform="translate(0 19.495)">
    <path id="Trazado_52" data-name="Trazado 52" d="M36.177,297.05l2.325-1.109-.095.968-1.507.68,1.348.938-.091.928-2.06-1.539-1.585-.156.085-.866Z" transform="translate(-34.412 -295.941)" fill="#5e5e5e"/>
    <path id="Trazado_53" data-name="Trazado 53" d="M35.346,311.35a1.849,1.849,0,0,0-.147.186,1.452,1.452,0,0,0-.131.234,1.313,1.313,0,0,0-.088.275,1.117,1.117,0,0,0-.016.313.691.691,0,0,0,.045.191.636.636,0,0,0,.1.169.44.44,0,0,0,.142.116.315.315,0,0,0,.176.033.36.36,0,0,0,.309-.231,2.829,2.829,0,0,0,.175-.665,1.734,1.734,0,0,1,.114-.412,1.237,1.237,0,0,1,.206-.337.974.974,0,0,1,.294-.233,1,1,0,0,1,.385-.107,1.179,1.179,0,0,1,.455.047,1.043,1.043,0,0,1,.393.227,1.248,1.248,0,0,1,.292.409,1.8,1.8,0,0,1,.145.6,1.992,1.992,0,0,1-.016.515,1.811,1.811,0,0,1-.11.389,1.325,1.325,0,0,1-.148.269c-.054.071-.1.125-.126.162l-.586-.447c.031-.045.063-.1.1-.154a1.339,1.339,0,0,0,.094-.193,1.227,1.227,0,0,0,.067-.231.973.973,0,0,0,.012-.261.59.59,0,0,0-.044-.176.631.631,0,0,0-.089-.152.406.406,0,0,0-.123-.1.25.25,0,0,0-.142-.031.355.355,0,0,0-.295.231,2.011,2.011,0,0,0-.151.577,2.428,2.428,0,0,1-.1.423,1.362,1.362,0,0,1-.2.38,1.061,1.061,0,0,1-.327.284,1.188,1.188,0,0,1-.493.139,1,1,0,0,1-.479-.074,1.2,1.2,0,0,1-.4-.277A1.459,1.459,0,0,1,34.34,313a1.81,1.81,0,0,1-.136-.562,2.3,2.3,0,0,1,.01-.52,2.1,2.1,0,0,1,.107-.432,1.942,1.942,0,0,1,.172-.354,1.825,1.825,0,0,1,.211-.277Z" transform="translate(-34.195 -306.124)" fill="#5e5e5e"/>
    <path id="Trazado_54" data-name="Trazado 54" d="M36.3,324.025a1.979,1.979,0,0,1-.037-.8,1.9,1.9,0,0,1,.775-1.262,2.141,2.141,0,0,1,1.532-.377,1.915,1.915,0,0,1,1.27.758,2.071,2.071,0,0,1,.374,1.519,1.92,1.92,0,0,1-.773,1.262,2.138,2.138,0,0,1-1.531.377,1.907,1.907,0,0,1-1.273-.758A1.977,1.977,0,0,1,36.3,324.025Zm.784-.192a1.008,1.008,0,0,0,.2.413,1.024,1.024,0,0,0,.334.266,1.175,1.175,0,0,0,.421.116,1.477,1.477,0,0,0,.895-.22,1.15,1.15,0,0,0,.316-.3,1.016,1.016,0,0,0,.167-.39,1.04,1.04,0,0,0-.016-.458,1.061,1.061,0,0,0-.2-.417,1,1,0,0,0-.33-.27,1.136,1.136,0,0,0-.417-.116,1.469,1.469,0,0,0-.895.22,1.152,1.152,0,0,0-.319.3,1.008,1.008,0,0,0-.173.393A1.035,1.035,0,0,0,37.08,323.832Z" transform="translate(-35.587 -313.443)" fill="#5e5e5e"/>
    <path id="Trazado_55" data-name="Trazado 55" d="M42.293,338.818a1.774,1.774,0,0,1-.4-.143,2.009,2.009,0,0,1-.383-.247,2.123,2.123,0,0,1-.334-.344,1.976,1.976,0,0,1-.257-.437,2.036,2.036,0,0,1-.179-.784,1.829,1.829,0,0,1,.132-.73,1.856,1.856,0,0,1,.415-.616,2.268,2.268,0,0,1,1.451-.628,1.866,1.866,0,0,1,1.381.514,1.984,1.984,0,0,1,.461.671,2.08,2.08,0,0,1,.19.925,1.731,1.731,0,0,1-.25.824l-.75-.313a1.407,1.407,0,0,0,.192-.523,1.035,1.035,0,0,0-.088-.569,1.1,1.1,0,0,0-.27-.386,1.014,1.014,0,0,0-.375-.215,1.189,1.189,0,0,0-.439-.049,1.4,1.4,0,0,0-.456.114,1.389,1.389,0,0,0-.4.256,1.123,1.123,0,0,0-.258.35,1.018,1.018,0,0,0-.093.413,1.067,1.067,0,0,0,.095.448,1.3,1.3,0,0,0,.18.309,1.082,1.082,0,0,0,.211.2,1.031,1.031,0,0,0,.233.125c.081.031.163.06.245.086Z" transform="translate(-38.665 -322.539)" fill="#5e5e5e"/>
    <path id="Trazado_56" data-name="Trazado 56" d="M48.162,344.154l.427.744-3.29,1.887-.427-.744Z" transform="translate(-41.487 -328.868)" fill="#5e5e5e"/>
    <path id="Trazado_57" data-name="Trazado 57" d="M51.057,350.909l.561.766-2.242,3.358-.555-.757.531-.748-.789-1.078-.873.28-.53-.725Zm-1.288,2.063.885-1.218-1.436.465Z" transform="translate(-43.05 -333.481)" fill="#5e5e5e"/>
    <path id="Trazado_58" data-name="Trazado 58" d="M58.522,357.3l.6.614-2.169,2.116,1.267,1.3-.545.532-1.866-1.912Z" transform="translate(-48.955 -337.843)" fill="#5e5e5e"/>
    <path id="Trazado_59" data-name="Trazado 59" d="M65.972,364.25l.651.488-.276,2.017,1.841-.844.655.491-2.134,3.141-.687-.515,1.4-2.048-1.514.712-.355-.266.212-1.667-1.554,1.912-.655-.491Z" transform="translate(-54.247 -342.592)" fill="#5e5e5e"/>
    <path id="Trazado_60" data-name="Trazado 60" d="M78.234,372.025l2.3,1.2-.349.665-1.536-.806-.344.655,1.194.626-.338.644-1.193-.626-.381.725,1.646.864-.351.669-2.406-1.263Z" transform="translate(-63.067 -347.902)" fill="#5e5e5e"/>
    <path id="Trazado_61" data-name="Trazado 61" d="M88.007,376.523l.773.268.747,2.865.805-2.327.8.277-1.242,3.583-.736-.255-.769-2.92-.821,2.369-.8-.278Z" transform="translate(-70.096 -350.974)" fill="#5e5e5e"/>
    <path id="Trazado_62" data-name="Trazado 62" d="M102.217,381.135l-1.208-.218.134-.745,3.262.59-.134.744-1.2-.217-.539,2.988-.851-.154Z" transform="translate(-79.825 -353.466)" fill="#5e5e5e"/>
    <path id="Trazado_63" data-name="Trazado 63" d="M112.317,382.052l2.59.107-.031.75-1.733-.071-.03.738,1.347.056-.03.727-1.346-.055-.034.818,1.858.076-.032.756-2.715-.111Z" transform="translate(-87.442 -354.75)" fill="#5e5e5e"/>
    <path id="Trazado_64" data-name="Trazado 64" d="M125.551,381.717l1.4-.192a1.659,1.659,0,0,1,.588.014,1.194,1.194,0,0,1,.448.2,1.03,1.03,0,0,1,.3.34,1.286,1.286,0,0,1,.144.445,1.252,1.252,0,0,1-.073.661,1.2,1.2,0,0,1-.394.5L129,385.071l-.935.128-.888-1.284-.473.065.19,1.38-.828.114Zm1.584,1.51a.519.519,0,0,0,.253-.913.505.505,0,0,0-.39-.084l-.524.072.137,1Z" transform="translate(-96.585 -354.377)" fill="#5e5e5e"/>
    <path id="Trazado_65" data-name="Trazado 65" d="M135.754,379.131l2.5-.7.2.722-1.669.467.2.712,1.3-.363.2.7-1.3.363.221.788,1.791-.5.2.728-2.618.732Z" transform="translate(-103.553 -352.278)" fill="#5e5e5e"/>
    <path id="Trazado_66" data-name="Trazado 66" d="M147.135,378.479a1.793,1.793,0,0,0,.223.08,1.513,1.513,0,0,0,.263.05,1.353,1.353,0,0,0,.29,0,1.078,1.078,0,0,0,.3-.084.667.667,0,0,0,.166-.1.612.612,0,0,0,.13-.146.459.459,0,0,0,.065-.171.328.328,0,0,0-.025-.178.36.36,0,0,0-.317-.218,2.816,2.816,0,0,0-.687.046,1.679,1.679,0,0,1-.426.023,1.267,1.267,0,0,1-.385-.087.988.988,0,0,1-.314-.2,1,1,0,0,1-.224-.331,1.181,1.181,0,0,1-.1-.446,1.037,1.037,0,0,1,.089-.445,1.237,1.237,0,0,1,.295-.406,1.8,1.8,0,0,1,.524-.329,1.976,1.976,0,0,1,.493-.149,1.872,1.872,0,0,1,.4-.02,1.3,1.3,0,0,1,.3.055c.084.028.149.05.193.068l-.237.7c-.051-.014-.111-.029-.177-.044a1.323,1.323,0,0,0-.214-.028,1.3,1.3,0,0,0-.24.011.951.951,0,0,0-.251.072.58.58,0,0,0-.153.1.614.614,0,0,0-.116.133.4.4,0,0,0-.059.15.249.249,0,0,0,.016.145.355.355,0,0,0,.312.206,2.011,2.011,0,0,0,.6-.041,2.431,2.431,0,0,1,.434-.036,1.341,1.341,0,0,1,.423.068,1.056,1.056,0,0,1,.374.219,1.179,1.179,0,0,1,.288.423.986.986,0,0,1,.083.478,1.2,1.2,0,0,1-.135.467,1.442,1.442,0,0,1-.325.41,1.775,1.775,0,0,1-.489.308,2.31,2.31,0,0,1-.5.156,2.088,2.088,0,0,1-.443.037,1.87,1.87,0,0,1-.39-.051,1.89,1.89,0,0,1-.33-.111Z" transform="translate(-110.615 -350.175)" fill="#5e5e5e"/>
    <path id="Trazado_67" data-name="Trazado 67" d="M154.353,371.714l1.182-.715a1.579,1.579,0,0,1,.568-.224,1.192,1.192,0,0,1,.492.018A1.044,1.044,0,0,1,157,371a1.39,1.39,0,0,1,.3.354,1.279,1.279,0,0,1,.188.514,1.1,1.1,0,0,1-.044.476,1.237,1.237,0,0,1-.232.413,1.5,1.5,0,0,1-.377.321l-.5.3.692,1.143-.715.433Zm2.056.816a.505.505,0,0,0,.248-.32.526.526,0,0,0-.077-.4.546.546,0,0,0-.323-.26.5.5,0,0,0-.4.068l-.423.256.55.91Z" transform="translate(-116.255 -347.036)" fill="#5e5e5e"/>
    <path id="Trazado_68" data-name="Trazado 68" d="M167.909,366.812a1.986,1.986,0,0,1-.7.387,1.908,1.908,0,0,1-1.475-.135,2.135,2.135,0,0,1-1.017-1.206,1.913,1.913,0,0,1,.117-1.475,2.067,2.067,0,0,1,1.2-1.008,1.908,1.908,0,0,1,1.473.133,2.136,2.136,0,0,1,1.017,1.206,1.909,1.909,0,0,1-.115,1.477A1.979,1.979,0,0,1,167.909,366.812Zm-.521-.617a1,1,0,0,0,.371-.782,1.157,1.157,0,0,0-.082-.429,1.411,1.411,0,0,0-.24-.4,1.4,1.4,0,0,0-.354-.3,1.137,1.137,0,0,0-.406-.152,1.007,1.007,0,0,0-.424.022,1.129,1.129,0,0,0-.689.581,1,1,0,0,0-.1.416,1.129,1.129,0,0,0,.081.427,1.467,1.467,0,0,0,.594.7,1.17,1.17,0,0,0,.408.154,1.017,1.017,0,0,0,.43-.02A1.033,1.033,0,0,0,167.388,366.194Z" transform="translate(-123.27 -341.932)" fill="#5e5e5e"/>
    <path id="Trazado_69" data-name="Trazado 69" d="M172.573,354.712l.529-.626,2.941.335-1.88-1.59.547-.646,2.9,2.448-.5.594-3-.333,1.915,1.619-.547.647Z" transform="translate(-128.699 -334.352)" fill="#5e5e5e"/>
    <path id="Trazado_70" data-name="Trazado 70" d="M183.406,347.543a1.779,1.779,0,0,0,.229-.063,1.413,1.413,0,0,0,.245-.11,1.3,1.3,0,0,0,.235-.169,1.075,1.075,0,0,0,.2-.241.684.684,0,0,0,.077-.18.611.611,0,0,0,.022-.193.446.446,0,0,0-.044-.178.317.317,0,0,0-.122-.132.361.361,0,0,0-.386,0,2.81,2.81,0,0,0-.536.431,1.731,1.731,0,0,1-.336.264,1.244,1.244,0,0,1-.365.149.991.991,0,0,1-.375.013,1,1,0,0,1-.373-.143,1.186,1.186,0,0,1-.338-.308,1.038,1.038,0,0,1-.181-.415,1.235,1.235,0,0,1,.008-.5,1.783,1.783,0,0,1,.24-.57,2.014,2.014,0,0,1,.319-.4,1.889,1.889,0,0,1,.32-.247,1.317,1.317,0,0,1,.279-.128c.085-.026.152-.044.2-.055l.205.707c-.051.018-.108.04-.171.066a1.357,1.357,0,0,0-.191.1,1.258,1.258,0,0,0-.19.147.952.952,0,0,0-.165.2.618.618,0,0,0-.069.168.591.591,0,0,0-.018.176.4.4,0,0,0,.037.157.248.248,0,0,0,.1.109.354.354,0,0,0,.374-.01,1.976,1.976,0,0,0,.465-.374,2.564,2.564,0,0,1,.335-.278,1.346,1.346,0,0,1,.385-.187,1.063,1.063,0,0,1,.432-.034,1.184,1.184,0,0,1,.479.181,1.007,1.007,0,0,1,.342.344,1.2,1.2,0,0,1,.157.461,1.468,1.468,0,0,1-.031.522,1.8,1.8,0,0,1-.225.533,2.291,2.291,0,0,1-.317.412,2.1,2.1,0,0,1-.342.284,1.861,1.861,0,0,1-.349.182,1.8,1.8,0,0,1-.334.1Z" transform="translate(-134.682 -329.01)" fill="#5e5e5e"/>
    <path id="Trazado_71" data-name="Trazado 71" d="M186.661,337.448l.377-.871,4.031.235-.373.861-.913-.08-.531,1.225.683.612-.357.824Zm2.431.068-1.5-.147,1.127,1Z" transform="translate(-138.32 -323.693)" fill="#5e5e5e"/>
    <path id="Trazado_72" data-name="Trazado 72" d="M189.717,326.671l.364-1.374a1.885,1.885,0,0,1,.233-.556,1.129,1.129,0,0,1,.314-.328.8.8,0,0,1,.362-.134,1.039,1.039,0,0,1,.377.03.748.748,0,0,1,.294.146.974.974,0,0,1,.191.209.754.754,0,0,1,.1.222.706.706,0,0,1,.028.181,1.309,1.309,0,0,1,.14-.207.917.917,0,0,1,.23-.2.951.951,0,0,1,.321-.124.9.9,0,0,1,.4.022,1.088,1.088,0,0,1,.456.23.9.9,0,0,1,.249.372,1.3,1.3,0,0,1,.064.5,2.872,2.872,0,0,1-.1.612l-.363,1.374Zm1.811-.908a.8.8,0,0,0,.027-.19.511.511,0,0,0-.026-.178.371.371,0,0,0-.1-.146.411.411,0,0,0-.183-.1.425.425,0,0,0-.212-.01.361.361,0,0,0-.157.082.493.493,0,0,0-.109.145.935.935,0,0,0-.067.174l-.129.489.825.218Zm1.575.364a1.7,1.7,0,0,0,.038-.2.6.6,0,0,0-.009-.22.449.449,0,0,0-.1-.195.471.471,0,0,0-.242-.131.425.425,0,0,0-.444.112.659.659,0,0,0-.126.184,1.233,1.233,0,0,0-.073.2l-.142.538.956.253Z" transform="translate(-140.407 -315.29)" fill="#5e5e5e"/>
    <path id="Trazado_73" data-name="Trazado 73" d="M192.239,316.82l.107-.852,3.007.374.224-1.8.756.094L196,317.289Z" transform="translate(-142.129 -308.645)" fill="#5e5e5e"/>
    <path id="Trazado_74" data-name="Trazado 74" d="M193.272,306.45l-.016-2.592.75,0,.011,1.734.738,0-.008-1.348.728,0,.008,1.348.818-.005-.011-1.859.757,0,.017,2.718Z" transform="translate(-142.824 -301.247)" fill="#5e5e5e"/>
  </g>
  <g id="Grupo_9" data-name="Grupo 9" transform="translate(11.255)">
    <path id="Trazado_75" data-name="Trazado 75" d="M71.263,253.731a1.856,1.856,0,0,0,.237.01,1.384,1.384,0,0,0,.266-.029,1.325,1.325,0,0,0,.275-.089,1.073,1.073,0,0,0,.263-.17.7.7,0,0,0,.129-.146.635.635,0,0,0,.08-.177.444.444,0,0,0,.013-.183.321.321,0,0,0-.076-.164.361.361,0,0,0-.368-.115,2.786,2.786,0,0,0-.643.246,1.709,1.709,0,0,1-.4.148,1.261,1.261,0,0,1-.393.029.972.972,0,0,1-.672-.354,1.185,1.185,0,0,1-.228-.4,1.036,1.036,0,0,1-.045-.451,1.241,1.241,0,0,1,.162-.475,1.8,1.8,0,0,1,.4-.468,1.953,1.953,0,0,1,.427-.287,1.871,1.871,0,0,1,.38-.139,1.3,1.3,0,0,1,.306-.036c.088,0,.157,0,.2.008l-.021.737c-.054,0-.114,0-.182.01a1.288,1.288,0,0,0-.438.117.931.931,0,0,0-.219.143.564.564,0,0,0-.118.138.6.6,0,0,0-.071.162.41.41,0,0,0-.013.16.253.253,0,0,0,.058.134.356.356,0,0,0,.359.1,2.022,2.022,0,0,0,.557-.214,2.476,2.476,0,0,1,.4-.162,1.335,1.335,0,0,1,.424-.059,1.074,1.074,0,0,1,.422.1,1.187,1.187,0,0,1,.4.32,1,1,0,0,1,.22.432,1.191,1.191,0,0,1,.008.487,1.44,1.44,0,0,1-.189.487,1.8,1.8,0,0,1-.377.438,2.318,2.318,0,0,1-.429.3,2.108,2.108,0,0,1-.412.165,1.9,1.9,0,0,1-.737.058Z" transform="translate(-69.694 -245.402)" fill="#5e5e5e"/>
    <path id="Trazado_76" data-name="Trazado 76" d="M82.7,246.836a1.977,1.977,0,0,1-.755.254,1.911,1.911,0,0,1-1.426-.4,2.149,2.149,0,0,1-.782-1.37,1.914,1.914,0,0,1,.382-1.43,2.065,2.065,0,0,1,1.358-.775,1.92,1.92,0,0,1,1.425.4,2.146,2.146,0,0,1,.782,1.37,1.906,1.906,0,0,1-.381,1.432A1.977,1.977,0,0,1,82.7,246.836Zm-.4-.7a1,1,0,0,0,.506-.7,1.184,1.184,0,0,0,0-.437,1.414,1.414,0,0,0-.164-.436,1.4,1.4,0,0,0-.293-.364,1.145,1.145,0,0,0-.372-.223,1.012,1.012,0,0,0-.421-.054,1.041,1.041,0,0,0-.437.14,1.065,1.065,0,0,0-.346.306,1,1,0,0,0-.169.391,1.132,1.132,0,0,0,0,.434,1.463,1.463,0,0,0,.456.8,1.147,1.147,0,0,0,.374.225,1,1,0,0,0,.426.058A1.022,1.022,0,0,0,82.3,246.134Z" transform="translate(-76.539 -240.359)" fill="#5e5e5e"/>
    <path id="Trazado_77" data-name="Trazado 77" d="M93.264,240.938a1.838,1.838,0,0,0,.217.1,1.476,1.476,0,0,0,.259.07,1.344,1.344,0,0,0,.289.018,1.067,1.067,0,0,0,.307-.061.71.71,0,0,0,.174-.089.646.646,0,0,0,.14-.136.447.447,0,0,0,.079-.165.317.317,0,0,0-.011-.179.361.361,0,0,0-.3-.243,2.765,2.765,0,0,0-.688-.006,1.706,1.706,0,0,1-.427-.01,1.235,1.235,0,0,1-.377-.116.99.99,0,0,1-.3-.227,1,1,0,0,1-.2-.348,1.176,1.176,0,0,1-.066-.452,1.042,1.042,0,0,1,.123-.436,1.237,1.237,0,0,1,.324-.383,1.809,1.809,0,0,1,.547-.289,1.972,1.972,0,0,1,.5-.11,1.86,1.86,0,0,1,.4.011,1.275,1.275,0,0,1,.3.078c.082.034.145.061.188.082l-.289.677c-.051-.018-.109-.038-.173-.058a1.347,1.347,0,0,0-.211-.045,1.3,1.3,0,0,0-.24-.007.923.923,0,0,0-.255.053.58.58,0,0,0-.161.085.628.628,0,0,0-.125.124.409.409,0,0,0-.07.145.251.251,0,0,0,0,.145.356.356,0,0,0,.3.229,2.011,2.011,0,0,0,.6,0,2.524,2.524,0,0,1,.435,0,1.345,1.345,0,0,1,.416.1,1.085,1.085,0,0,1,.356.247,1.207,1.207,0,0,1,.255.445,1,1,0,0,1,.046.483,1.19,1.19,0,0,1-.171.456,1.457,1.457,0,0,1-.354.385,1.807,1.807,0,0,1-.511.27,2.308,2.308,0,0,1-.507.118,2.066,2.066,0,0,1-.444,0,1.871,1.871,0,0,1-.386-.081,1.823,1.823,0,0,1-.32-.136Z" transform="translate(-85.174 -236.784)" fill="#5e5e5e"/>
    <path id="Trazado_78" data-name="Trazado 78" d="M103.135,235.819l-1.21.212-.131-.744,3.264-.574.131.745-1.2.211.524,2.99-.851.149Z" transform="translate(-91.617 -234.631)" fill="#5e5e5e"/>
    <path id="Trazado_79" data-name="Trazado 79" d="M115.135,234.477l2.592-.024.007.75L116,235.22l.007.739,1.348-.013.007.727-1.347.013.008.819,1.859-.018.007.756-2.718.026Z" transform="translate(-100.727 -234.453)" fill="#5e5e5e"/>
    <path id="Trazado_80" data-name="Trazado 80" d="M125.778,234.662l.807.139,1.2,2.7.415-2.427.835.143-.639,3.738-.768-.131-1.237-2.755-.423,2.471-.835-.142Z" transform="translate(-107.56 -234.596)" fill="#5e5e5e"/>
    <path id="Trazado_81" data-name="Trazado 81" d="M138.373,237.516l.818.258-1.144,3.616-.818-.26Z" transform="translate(-115.816 -236.545)" fill="#5e5e5e"/>
    <path id="Trazado_82" data-name="Trazado 82" d="M143.292,239.4l1.293.592a1.871,1.871,0,0,1,.508.324,1.132,1.132,0,0,1,.271.365.8.8,0,0,1,.07.379,1.015,1.015,0,0,1-.093.367.759.759,0,0,1-.193.265,1,1,0,0,1-.239.153.766.766,0,0,1-.236.064.681.681,0,0,1-.184,0,1.3,1.3,0,0,1,.18.174.92.92,0,0,1,.159.26.952.952,0,0,1,.067.337.884.884,0,0,1-.09.394,1.084,1.084,0,0,1-.3.411.9.9,0,0,1-.408.182,1.316,1.316,0,0,1-.5-.022,2.928,2.928,0,0,1-.586-.2l-1.292-.592Zm-.039,3.428a1.587,1.587,0,0,0,.192.072.586.586,0,0,0,.218.028.448.448,0,0,0,.209-.066.479.479,0,0,0,.171-.216.426.426,0,0,0-.035-.457.685.685,0,0,0-.16-.155,1.351,1.351,0,0,0-.183-.106l-.506-.232-.412.9Zm.626-1.49a.741.741,0,0,0,.183.059.49.49,0,0,0,.179,0,.383.383,0,0,0,.161-.07.419.419,0,0,0,.126-.165.426.426,0,0,0,.045-.208.365.365,0,0,0-.054-.168.505.505,0,0,0-.124-.132.891.891,0,0,0-.16-.095l-.46-.211-.355.775Z" transform="translate(-118.878 -237.832)" fill="#5e5e5e"/>
    <path id="Trazado_83" data-name="Trazado 83" d="M153.326,244.906l.713.478-1.687,2.517,1.507,1.01-.425.633-2.219-1.488Z" transform="translate(-125.368 -241.592)" fill="#5e5e5e"/>
    <path id="Trazado_84" data-name="Trazado 84" d="M161.626,251.46l1.9,1.759-.51.551-1.274-1.177-.5.543.99.914-.493.535-.99-.914-.556.6,1.366,1.262-.512.555-2-1.843Z" transform="translate(-130.721 -246.068)" fill="#5e5e5e"/>
  </g>
  <g id="Grupo_10" data-name="Grupo 10" transform="translate(19.165 10.009)">
    <path id="Trazado_85" data-name="Trazado 85" d="M97.094,269.894a4.987,4.987,0,0,0-2.013,6.342.491.491,0,0,0,.9-.4,4,4,0,0,1,5.167-5.347,4.211,4.211,0,0,0-3.522,1.6,4,4,0,0,0,6.687.392,8.181,8.181,0,0,1,5.543-3.241,11.187,11.187,0,0,0-9.267-3.119A4.006,4.006,0,0,0,97.094,269.894Z" transform="translate(-94.64 -266.022)" fill="#669c1d"/>
  </g>
  <g id="Grupo_11" data-name="Grupo 11" transform="translate(10.985 17.539)">
    <path id="Trazado_86" data-name="Trazado 86" d="M160.539,307.761a.268.268,0,0,0,0,.536.875.875,0,0,1,.88.88.245.245,0,0,0,.268.255.25.25,0,0,0,.268-.271,1.438,1.438,0,0,0-.42-.993,1.361,1.361,0,0,0-1-.407" transform="translate(-131.291 -302.057)" fill="#de192a"/>
    <path id="Trazado_87" data-name="Trazado 87" d="M165.3,301.7a2.626,2.626,0,0,0-1.9-.777.239.239,0,0,0-.255.255.246.246,0,0,0,.255.268,2.118,2.118,0,0,1,1.531.626,2.05,2.05,0,0,1,.626,1.518.251.251,0,0,0,.268.268.245.245,0,0,0,.255-.268,2.583,2.583,0,0,0-.778-1.89" transform="translate(-133.242 -297.384)" fill="#de192a"/>
    <path id="Trazado_88" data-name="Trazado 88" d="M161.975,304.34a.251.251,0,0,0-.283.268.246.246,0,0,0,.268.256,1.528,1.528,0,0,1,1.518,1.518.245.245,0,0,0,.255.268.249.249,0,0,0,.268-.268,2.067,2.067,0,0,0-2.027-2.042" transform="translate(-132.253 -299.72)" fill="#de192a"/>
    <path id="Trazado_89" data-name="Trazado 89" d="M86.517,321.1a.624.624,0,0,0-.217-.51,2.746,2.746,0,0,0-.715-.4v1.723q.932-.153.932-.817" transform="translate(-80.276 -310.55)" fill="#de192a"/>
    <path id="Trazado_90" data-name="Trazado 90" d="M82.842,341.1a.605.605,0,0,0,.447-.179.654.654,0,0,0,.192-.459.632.632,0,0,0-.638-.626.68.68,0,0,0-.459.179.634.634,0,0,0-.179.447.612.612,0,0,0,.638.638m0-.88a.214.214,0,0,1,.243.243q0,.255-.243.255t-.23-.255q0-.243.23-.243" transform="translate(-77.967 -323.963)" fill="#de192a"/>
    <path id="Trazado_91" data-name="Trazado 91" d="M81.407,310.3a1.181,1.181,0,0,0-.664.268.561.561,0,0,0-.23.485.778.778,0,0,0,.191.51,1.9,1.9,0,0,0,.7.4Z" transform="translate(-76.813 -303.789)" fill="#de192a"/>
    <path id="Trazado_92" data-name="Trazado 92" d="M77.966,290.217a1.545,1.545,0,0,0-.983-.447h-6.7a1.545,1.545,0,0,0-.983.447,1.5,1.5,0,0,0-.459,1.1v15.428a1.512,1.512,0,0,0,.459,1.11,1.469,1.469,0,0,0,.983.447v.013h6.7V308.3a1.469,1.469,0,0,0,.983-.447,1.512,1.512,0,0,0,.459-1.11V291.314a1.5,1.5,0,0,0-.459-1.1m-.727,16.526a.407.407,0,0,1-.1.281.379.379,0,0,1-.268.115H70.4a.378.378,0,0,1-.268-.115.407.407,0,0,1-.1-.281v-1.366h7.21ZM72.976,299a3.072,3.072,0,0,1-1.289-.8,1.76,1.76,0,0,1-.4-1.148,1.5,1.5,0,0,1,.574-1.212,2.641,2.641,0,0,1,1.57-.574v-.906h.715v.88a5.789,5.789,0,0,1,2.054.434l-.383.983a6.244,6.244,0,0,0-1.672-.408v1.952l.4.166a3.671,3.671,0,0,1,1.416.829,1.5,1.5,0,0,1,.383,1.072,1.615,1.615,0,0,1-.561,1.263,2.867,2.867,0,0,1-1.633.625v1.161h-.715v-1.123a5.28,5.28,0,0,1-2.2-.421v-1.123a5.846,5.846,0,0,0,1.072.383,4.773,4.773,0,0,0,1.123.153v-2Zm4.262-6.61h-7.21v-1.072a.423.423,0,0,1,.1-.268.38.38,0,0,1,.268-.115h6.47a.382.382,0,0,1,.268.115.423.423,0,0,1,.1.268Z" transform="translate(-68.842 -289.77)" fill="#de192a"/>
    <rect id="Rectángulo_2" data-name="Rectángulo 2" width="1.123" height="0.408" transform="translate(4.607 1.748)" fill="#de192a"/>
    <path id="Trazado_93" data-name="Trazado 93" d="M81.324,295.4a.166.166,0,1,0,.166.166.146.146,0,0,0-.166-.166" transform="translate(-77.253 -293.618)" fill="#de192a"/>
    <path id="Trazado_94" data-name="Trazado 94" d="M122.609,309.414a1.117,1.117,0,0,0-.344-.881,1.387,1.387,0,0,0-1-.319,3.237,3.237,0,0,0-1.455.294l.332.766a2.435,2.435,0,0,1,.919-.255.355.355,0,0,1,.4.408v.051l-.549.013a2.2,2.2,0,0,0-1.072.294.914.914,0,0,0-.37.791,1.071,1.071,0,0,0,.281.791.958.958,0,0,0,.727.281,1.749,1.749,0,0,0,.625-.1,1.406,1.406,0,0,0,.472-.4h.026l.217.447h.791v-2.182m-1.135.957a.39.39,0,0,1-.153.332.484.484,0,0,1-.357.14q-.319,0-.319-.307,0-.4.562-.421l.268-.013v.268m3.062-3.343h-1.148V311.6h1.148Zm-16.436.8a2.253,2.253,0,0,0-1.6-.523h-1.48V311.6h1.391a2.3,2.3,0,0,0,1.659-.587,2.226,2.226,0,0,0,.587-1.646,2.043,2.043,0,0,0-.562-1.531m-1.582.408a.837.837,0,0,1,.7.293,1.246,1.246,0,0,1,.243.868,1.464,1.464,0,0,1-.255.931.9.9,0,0,1-.766.307h-.255v-2.4h.332m3.994.038h-1.149V311.6h1.149Zm-.574-1.34a.674.674,0,0,0-.459.127.468.468,0,0,0-.14.383q0,.5.6.5t.613-.5a.518.518,0,0,0-.14-.383.7.7,0,0,0-.472-.127m6.163,1.34h-1.148V311.6H116.1Zm.549.383v.472h.408V310.5a1.23,1.23,0,0,0,.255.868,1.049,1.049,0,0,0,.829.281l.485-.038a2.59,2.59,0,0,0,.447-.14v-.842a1.661,1.661,0,0,1-.549.115.282.282,0,0,1-.319-.319v-1.289h.817v-.855h-.817V307.6h-.74l-.306.7-.51.357m-2.208.166v-.549h-1.161l-.638-.064a1.737,1.737,0,0,0-1.059.294,1.035,1.035,0,0,0-.37.842,1.1,1.1,0,0,0,.153.6.907.907,0,0,0,.408.357.953.953,0,0,0-.357.281.5.5,0,0,0-.089.268.411.411,0,0,0,.115.281.852.852,0,0,0,.268.217q-.74.166-.74.766a.741.741,0,0,0,.383.676,2.112,2.112,0,0,0,1.085.243,2.59,2.59,0,0,0,1.455-.344,1.056,1.056,0,0,0,.523-.945q0-.932-1.123-.932h-.549a1.3,1.3,0,0,1-.357-.051q-.14-.039-.14-.127a.269.269,0,0,1,.038-.14l.294.013a1.723,1.723,0,0,0,1.123-.294.963.963,0,0,0,.383-.829.781.781,0,0,0-.1-.4l.459-.166m-1.442.536a.749.749,0,0,1-.089.383.314.314,0,0,1-.255.128q-.357,0-.357-.51t.357-.51q.345,0,.345.51m-.906,2.871a.263.263,0,0,1-.153-.23.26.26,0,0,1,.128-.217.629.629,0,0,1,.306-.077h.446a1.42,1.42,0,0,1,.447.051q.153.064.153.179,0,.165-.255.268a1.643,1.643,0,0,1-.664.1.921.921,0,0,1-.408-.077m3.9-5.168a.7.7,0,0,0-.472-.127.646.646,0,0,0-.459.127.446.446,0,0,0-.14.383q0,.5.6.5t.613-.5a.518.518,0,0,0-.14-.383m-1.187-4.39a1.491,1.491,0,0,0-.6.127.881.881,0,0,0-.4.345h-.077l-.14-.408h-.868v3.318h1.148V304.6a1.7,1.7,0,0,1,.128-.791.461.461,0,0,1,.421-.23.319.319,0,0,1,.306.166,1.081,1.081,0,0,1,.089.5v1.812h1.149V303.9a1.284,1.284,0,0,0-.306-.906,1.155,1.155,0,0,0-.855-.319m-4.4.817a.361.361,0,0,1,.408.408v.051l-.562.013a2.036,2.036,0,0,0-1.072.294.894.894,0,0,0-.37.791,1.07,1.07,0,0,0,.281.791.984.984,0,0,0,.727.281,1.412,1.412,0,0,0,.625-.115,1.117,1.117,0,0,0,.472-.383h.025l.217.434h.791v-2.169a1.182,1.182,0,0,0-.345-.893,1.442,1.442,0,0,0-1-.319,3.071,3.071,0,0,0-1.455.306l.332.753a2.307,2.307,0,0,1,.919-.243m.408,1.085v.255a.426.426,0,0,1-.153.345.467.467,0,0,1-.345.127q-.332,0-.332-.306,0-.383.562-.408l.268-.013m-3-2.539a2.5,2.5,0,0,0-1.3-.255h-1.493v4.275H106.7a1.943,1.943,0,0,0,1.187-.332,1.114,1.114,0,0,0,.434-.919,1.017,1.017,0,0,0-.178-.638.989.989,0,0,0-.574-.357v-.026a.765.765,0,0,0,.485-.332.957.957,0,0,0,.192-.613.871.871,0,0,0-.421-.8m-.906,1.276a.572.572,0,0,1-.383.1h-.345v-.766h.319q.549,0,.549.357a.354.354,0,0,1-.14.306m-.345.957a.688.688,0,0,1,.421.115.39.39,0,0,1,.14.319q0,.459-.536.459h-.408v-.893h.383m-.064-3.777a.518.518,0,0,0-.14-.383,1.413,1.413,0,0,0-.51-.293,1.308,1.308,0,0,1-.332-.14.365.365,0,0,1-.14-.14.326.326,0,0,1-.051-.2.293.293,0,0,1,.128-.255.5.5,0,0,1,.332-.089,1.471,1.471,0,0,1,.562.115l.089-.23a1.474,1.474,0,0,0-.638-.127.929.929,0,0,0-.549.153.556.556,0,0,0-.2.434.628.628,0,0,0,.14.421,1.222,1.222,0,0,0,.472.281l.344.14a.413.413,0,0,1,.166.153.3.3,0,0,1,.051.191.363.363,0,0,1-.14.294.69.69,0,0,1-.408.1,1.6,1.6,0,0,1-.332-.038l-.319-.089v.255a1.447,1.447,0,0,0,.638.115,1,1,0,0,0,.613-.179.56.56,0,0,0,.23-.485m2.22-1.429a.982.982,0,0,0-.778-.319,1.011,1.011,0,0,0-.8.306,1.56,1.56,0,0,0,0,1.786,1.124,1.124,0,0,0,1.582-.013,1.28,1.28,0,0,0,.294-.88,1.251,1.251,0,0,0-.294-.88m-.778-.077a.687.687,0,0,1,.574.243,1.085,1.085,0,0,1,.2.715,1.108,1.108,0,0,1-.2.727.724.724,0,0,1-.587.243.748.748,0,0,1-.587-.243,1.108,1.108,0,0,1-.2-.727,1.085,1.085,0,0,1,.2-.715.74.74,0,0,1,.6-.243m7.2-.089a.532.532,0,0,0-.2.434.572.572,0,0,0,.14.421,1.181,1.181,0,0,0,.459.281l.357.14a.417.417,0,0,1,.153.153.3.3,0,0,1,.051.191.34.34,0,0,1-.14.294.69.69,0,0,1-.408.1,1.6,1.6,0,0,1-.332-.038l-.319-.089v.255a1.448,1.448,0,0,0,.638.115,1,1,0,0,0,.613-.179.56.56,0,0,0,.23-.485.518.518,0,0,0-.14-.383,1.36,1.36,0,0,0-.51-.293,1.059,1.059,0,0,1-.319-.14.278.278,0,0,1-.153-.14.328.328,0,0,1-.051-.2.293.293,0,0,1,.127-.255.5.5,0,0,1,.332-.089,1.472,1.472,0,0,1,.562.115l.089-.23a1.472,1.472,0,0,0-.638-.127.839.839,0,0,0-.536.153m-1.684-.153a1.062,1.062,0,0,0-.8.306,1.562,1.562,0,0,0,0,1.786,1.039,1.039,0,0,0,.8.319,1,1,0,0,0,.791-.332,1.288,1.288,0,0,0,.281-.88,1.23,1.23,0,0,0-.281-.88,1,1,0,0,0-.791-.319m0,.242a.7.7,0,0,1,.587.243,1.151,1.151,0,0,1,.2.715,1.173,1.173,0,0,1-.2.727.832.832,0,0,1-1.174,0,1.106,1.106,0,0,1-.2-.727,1.084,1.084,0,0,1,.2-.715.7.7,0,0,1,.587-.243m-1.863.051h.013l-.025,2.08h.268v-2.348h-.408l-.74,1.94h-.013l-.74-1.94h-.408v2.348h.243v-1.493a4.469,4.469,0,0,0-.026-.587h.013l.8,2.08h.217l.8-2.08m8.69,4.1a1.993,1.993,0,0,0,0,2.514,1.827,1.827,0,0,0,2.438.013,1.8,1.8,0,0,0,.434-1.263,1.976,1.976,0,0,0-.2-.919,1.52,1.52,0,0,0-.574-.587,1.776,1.776,0,0,0-.868-.217,1.629,1.629,0,0,0-1.225.459m.829.613a.446.446,0,0,1,.766,0,1.9,1.9,0,0,1,0,1.3.446.446,0,0,1-.766,0A1.489,1.489,0,0,1,121,304.4a1.438,1.438,0,0,1,.115-.651m-2.756-.166a1.145,1.145,0,0,1,.357.051l.383.153.345-.855a2.5,2.5,0,0,0-1.085-.255,1.594,1.594,0,0,0-1.748,1.736,1.743,1.743,0,0,0,.421,1.263,1.647,1.647,0,0,0,1.238.447,1.885,1.885,0,0,0,1.059-.294v-.919a1.7,1.7,0,0,1-.97.293q-.587,0-.587-.791a1.051,1.051,0,0,1,.153-.613.5.5,0,0,1,.434-.217m1.123-4.811H119.2V300.3a.6.6,0,0,1-.153.447.6.6,0,0,1-.459.166.7.7,0,0,1-.472-.153.652.652,0,0,1-.153-.459v-1.531h-.281v1.519a.845.845,0,0,0,.23.625.9.9,0,0,0,.664.243.925.925,0,0,0,.664-.23.836.836,0,0,0,.243-.638v-1.519m.842.383h.013l1.289,1.965h.306v-2.348h-.255l.026,1.965h-.013l-1.276-1.965H120.1v2.348h.255v-1.327a6.088,6.088,0,0,0-.026-.638" transform="translate(-93.553 -295.9)" fill="#5e5e5e"/>
  </g>
</svg>
