<svg xmlns="http://www.w3.org/2000/svg" width="18" height="18" viewBox="0 0 18 18"><defs><style>.a{fill:#24d1fd;}</style></defs><path class="a" d="M83.715,159.72v.082a1.587,1.587,0,0,0,.862,1.4v-2.811A1.589,1.589,0,0,0,83.715,159.72Z" transform="translate(-76.295 -153.099)"/><path class="a" d="M86.013,162.99V165.8a1.576,1.576,0,0,0,0-2.814Z" transform="translate(-76.295 -153.099)"/><path class="a" d="M85.295,153.1a9,9,0,1,0,9,9A9,9,0,0,0,85.295,153.1ZM87.82,166.05a2.994,2.994,0,0,1-1.807,1.276v.839a.717.717,0,0,1-1.435,0v-.842a3.029,3.029,0,0,1-1.8-1.269.717.717,0,1,1,1.2-.789,1.578,1.578,0,0,0,.6.539v-3.071a3.015,3.015,0,0,1,0-5.858v-.838a.717.717,0,1,1,1.435,0v.84a2.987,2.987,0,0,1,1.8,1.27.717.717,0,0,1-.2.993.72.72,0,0,1-.993-.2,1.594,1.594,0,0,0-.6-.54v3.073a3.015,3.015,0,0,1,1.807,4.581Z" transform="translate(-76.295 -153.099)"/></svg>