<svg xmlns="http://www.w3.org/2000/svg" width="25.862" height="15" viewBox="0 0 25.862 15"><defs><style>.a{fill:#ee2552;fill-rule:evenodd;}</style></defs><path class="a" d="M1803,856.1v-.063a11.314,11.314,0,0,1,3.739.463c2.721.845.481-.943-3.528-1.008a1.241,1.241,0,0,0,.253-.827c0-.515-.208-.933-.464-.933v-.2l-2.245-.613-.926.517-1.123,0a2.41,2.41,0,0,0-1.519.448c-.629.493-.6.7-1.508.884a17.34,17.34,0,0,1-5.691-.431l-.853-.884h-2.713l-.174.7-.738,0-.367,1.53c-.186.019-.374.04-.565.068-5.284.756-.57.756-.57.756a12.377,12.377,0,0,1,5.981.03,4.806,4.806,0,0,1,2.126,1.84l-1.625.536a4.145,4.145,0,0,0-3.29-1.6,3.981,3.981,0,1,0,4.11,3.979c0-.057-.006-.112-.009-.168l1.587-.523a.547.547,0,0,0,.436.193h4.321c.393.021.547-.16.547-.467a4.644,4.644,0,0,1,2.032-3.357l.791,1.378a3.91,3.91,0,0,0-1.353,2.945,4.112,4.112,0,1,0,4.11-3.979,4.218,4.218,0,0,0-1.337.22l-.717-1.248A4.976,4.976,0,0,1,1803,856.1Zm-15.8,7.827a2.651,2.651,0,1,1,0-5.3,2.773,2.773,0,0,1,1.888.734l-1.363.449a.614.614,0,0,0-.415.474l-.675.222a.889.889,0,0,0-.577,1.137h0a.933.933,0,0,0,1.174.559l.729-.24a.645.645,0,0,0,.544.067l1.414-.466A2.705,2.705,0,0,1,1787.2,863.931Zm16.573-5.3a2.651,2.651,0,1,1-2.737,2.649,2.587,2.587,0,0,1,.673-1.736l.495.862a.625.625,0,0,0,.429.3l.628,1.094a.641.641,0,0,0,.857.237.6.6,0,0,0,.245-.83l-.656-1.143a.59.59,0,0,0-.061-.434l-.528-.919A2.81,2.81,0,0,1,1803.771,858.631Z" transform="translate(-1782.07 -850.26)"/><path class="a" d="M1840.36,844.93l1.871.207c.252.021.346.081.378.158l.558,1.572.822-.475-.5-1.408c-.245-.689-.514-.705-1.157-.776l-1.872-.208C1839.967,843.946,1840.016,844.891,1840.36,844.93Z" transform="translate(-1825.492 -843.999)"/></svg>