<svg xmlns="http://www.w3.org/2000/svg" width="17" height="17" viewBox="0 0 17 17"><defs><style>.a{fill:#24d1fd;}</style></defs><path class="a" d="M229.885,87.812a.933.933,0,0,0-1.033-.19l-15.124,6.631a.937.937,0,0,0-.089,1.673l3.779,2.145.145,2.747a.477.477,0,0,0,.276.407.468.468,0,0,0,.2.044.475.475,0,0,0,.288-.1l1.269-.969,2.279,3.878a.973.973,0,0,0,.863.462.938.938,0,0,0,.8-.562l6.547-15.126A.938.938,0,0,0,229.885,87.812Zm-4.876,3.54-7.165,4.793-1.653-.926Zm-2.459,10.183-1.89-3.22,5.773-5.734Z" transform="translate(-213.164 -87.542)"/></svg>