<svg xmlns="http://www.w3.org/2000/svg" width="20" height="23.526" viewBox="0 0 20 23.526"><defs><style>.a{fill:#24d1fd;fill-rule:evenodd;}</style></defs><g transform="translate(0 0.025)"><g transform="translate(0 -0.025)"><path class="a" d="M15.579,14.94a1.053,1.053,0,1,0,1.053,1.053A.96.96,0,0,0,15.579,14.94ZM1.895,4.2a.67.67,0,0,0-.421.772h0l.912,2.737h.421L1.965,5.186a.579.579,0,0,1,.351-.7h0l12.842-4a.615.615,0,0,1,.7.351L17.544,6.1c.14.351.07.561-.351.7l-2.947.912h1.263l2.105-.632a.605.605,0,0,0,.421-.772v-.07L16.14.414a.67.67,0,0,0-.772-.421Zm2.246.351a1.885,1.885,0,0,1-.07,2.667l.14.491H7.649c0-.07,0-.07-.07-.14a2.93,2.93,0,0,1,1.544-3.86,2.965,2.965,0,0,1,3.509,2.316,3.524,3.524,0,0,1,.14,1.474l2.947-.912A.444.444,0,0,0,16,6.028l-.772-2.316a1.808,1.808,0,0,1-1.614-2.105Zm5.544.421a.134.134,0,0,0-.211-.07c-.07,0-.14.07-.07.211l.07.14a.98.98,0,0,0-.7,1.123c.14.491.7.561,1.193.561.211,0,.632-.07.7.211a.5.5,0,0,1-.211.421l-.14-.561H9.965l.14.491a.386.386,0,0,1-.351-.211c-.07-.07-.14-.14-.211-.07h0l-.421.211c0,.07-.07.14,0,.281h2.035a.877.877,0,0,0,.281-.912c-.351-1.053-1.754-.281-1.895-.772,0-.14,0-.281.14-.281l.14.351h.281l-.14-.421c.07,0,.14.07.211.07a.422.422,0,0,0,.281.07l.351-.211c.07-.07.07-.07.07-.14a.7.7,0,0,0-.351-.281,1.2,1.2,0,0,0-.7,0ZM15.018,1.4l.421,1.263a.069.069,0,0,0,.07.07c.07,0,.07,0,.07.07s0,.07-.07.14l-.491.14c-.07,0-.14,0-.14-.07V2.94a.069.069,0,0,0,.07-.07V2.8L14.6,1.747a.069.069,0,0,0-.07-.07c-.07,0-.07,0-.07-.07s0-.07.07-.14Zm-12,7.088A2.981,2.981,0,0,0,0,11.431v9.123A2.981,2.981,0,0,0,3.018,23.5H16.982A3.074,3.074,0,0,0,20,20.554V18.729H15.649a2.7,2.7,0,1,1-.07-5.4H20V11.5a2.981,2.981,0,0,0-3.018-2.947H3.018Zm.421-3.439.351,1.263a.069.069,0,0,0,.07.07c.07,0,.07,0,.07.07s0,.07-.07.14l-.421.07c-.07,0-.14,0-.14-.07v-.07a.069.069,0,0,0,.07-.07v-.07L3.088,5.4a.069.069,0,0,0-.07-.07.069.069,0,0,1-.07-.07c0-.07,0-.07.07-.14Zm12.14,9.4a1.509,1.509,0,0,1-.07,3.018,1.482,1.482,0,0,1-1.474-1.474,1.606,1.606,0,0,1,1.544-1.544Z" transform="translate(0 0.025)"/></g></g></svg>