<svg xmlns="http://www.w3.org/2000/svg" width="60" height="60" viewBox="0 0 60 60"><defs><style>.a{fill:#fff;}.b{fill:#650809;}.c{fill:#ee252a;}</style></defs><g transform="translate(-30 -10)"><circle class="a" cx="30" cy="30" r="30" transform="translate(30 10)"/><g transform="translate(35.914 16.666)"><path class="b" d="M11.4,84.124a9.759,9.759,0,0,0,3.558,1.711c3.169.845,6.539,2.271,9.874,1.987,1.79-.153,3.563-.556,5.344-.814a31.041,31.041,0,0,0,4.74-.95A50.134,50.134,0,0,0,40.1,84.028c-5.283-.718-8.486-3.7-16.25-3.7S9.94,81.464,9.94,83.074c0,.053,1.077.753,1.457,1.037" transform="translate(-5.588 -46.696)"/><path class="b" d="M47.724,34.188C47.96,39.558,42,46.556,33.509,47.173,10.939,48.8,1.84,36.323,1.84,36.323s18.815,14.5,29.923,4.762c12.075-10.565,15.878-8.731,15.961-6.9" transform="translate(-1.033 -19.081)"/><path class="b" d="M51.5,13.973s3.37,9.418-21.625,7C14.515,19.5,15.618,16.682,15.618,16.682L37.938,9.15Z" transform="translate(-8.771 -5.144)"/><path class="c" d="M21.431,18.432c8.578-2.3,8.578-11.629,24.605-9.607a24.093,24.093,0,0,0-40.146,4.4c1.969,2.158,8.364,7.143,15.541,5.2" transform="translate(-3.311 0.003)"/><path class="c" d="M9.94,84.073a24.071,24.071,0,0,0,40.089-.919C34.23,77.9,33.4,94.8,9.94,84.073" transform="translate(-5.588 -47.699)"/><path class="c" d="M30.14,52.006a34.524,34.524,0,0,1,16.535.691,24.15,24.15,0,0,0,0-16.727C44.6,48.058,19.154,51.345.808,38.115a24.172,24.172,0,0,0,.635,14.443c.3.14,6.609,4.215,28.7-.543" transform="translate(0.003 -21.03)"/></g></g></svg>