<svg xmlns="http://www.w3.org/2000/svg" width="43.667" height="43.668" viewBox="0 0 43.667 43.668"><defs><style>.a{fill:#fff;}</style></defs><g transform="translate(-21.196 -23.302)"><path class="a" d="M48.153,23.3A21.833,21.833,0,0,0,28.66,35.292c1.786,1.958,7.557,6.475,14.084,4.719a12.232,12.232,0,0,0,4.334-2.2c4.175-3.186,6.732-7.924,17.97-6.5a21.785,21.785,0,0,0-16.894-8" transform="translate(-5.125 0)"/><path class="a" d="M57.658,129.075c-5.485,2.466-10.807,5.947-23.873-.026h0l.007.01a21.837,21.837,0,0,0,36.329-.844c-5.519-1.834-9.024-.687-12.464.859" transform="translate(-8.645 -71.397)"/><path class="a" d="M102.545,56.387c5.145-1.159,6.28-3.829,6.069-5.173a28.193,28.193,0,0,0-3.961-.243c-7.464-.015-12.62,5.834-12.742,5.944a45.037,45.037,0,0,0,10.634-.528" transform="translate(-48.559 -19)"/><path class="a" d="M35.892,126.7a29.784,29.784,0,0,0,12.4,3.193h0a22.315,22.315,0,0,0,9.757-2.688,26.692,26.692,0,0,0-10.2-2.158c-6.075.037-9.862.589-11.963,1.654" transform="translate(-10.091 -69.87)"/><path class="a" d="M97.965,73.285a8.991,8.991,0,0,1-3.574,1.685c10.221.73,17.877-4.193,18.851-9.81-.507-.263-2.676-2.456-15.276,8.125" transform="translate(-50.262 -28.494)"/><path class="a" d="M63.516,68.848a.069.069,0,0,1,0,.011c-1.249,7.159-11.544,10.907-23.169,9.289a41.492,41.492,0,0,1-18.417-7.357V70.8h0a21.936,21.936,0,0,0,.579,13.076c.27.125,5.991,3.818,26.011-.491a31.236,31.236,0,0,1,14.987.624,21.9,21.9,0,0,0,.013-15.16" transform="translate(0 -31.276)"/></g></svg>