<svg xmlns="http://www.w3.org/2000/svg" width="20" height="20" viewBox="0 0 20 20"><defs><style>.a{fill:#24d1fd;}</style></defs><path class="a" d="M232.835,87.859a1.1,1.1,0,0,0-1.216-.224l-17.793,7.8a1.1,1.1,0,0,0-.105,1.968l4.446,2.524.171,3.232a.562.562,0,0,0,.325.478.551.551,0,0,0,.234.051.559.559,0,0,0,.339-.114l1.493-1.14L223.41,107a1.145,1.145,0,0,0,1.016.543,1.1,1.1,0,0,0,.945-.662l7.7-17.8A1.1,1.1,0,0,0,232.835,87.859ZM227.1,92.024l-8.429,5.638-1.944-1.09ZM224.206,104l-2.224-3.788,6.791-6.746Z" transform="translate(-213.164 -87.542)"/></svg>