<svg xmlns="http://www.w3.org/2000/svg" width="23.894" height="22.921" viewBox="0 0 23.894 22.921"><defs><style>.a{fill:#65c323;}</style></defs><g transform="translate(0 -10.424)"><path class="a" d="M298.135,296.13a1.206,1.206,0,1,0,1.2,1.206A1.206,1.206,0,0,0,298.135,296.13Z" transform="translate(-283.074 -272.373)"/><path class="a" d="M22.714,24.14a3.533,3.533,0,0,0,1.18-2.255,3.534,3.534,0,0,0-1.18-2.256,3.645,3.645,0,0,1-.731-1.006,3.768,3.768,0,0,1-.009-1.305,3.478,3.478,0,0,0-.361-2.457,3.5,3.5,0,0,0-2.239-1.107,3.717,3.717,0,0,1-1.225-.4,3.693,3.693,0,0,1-.748-1.026,3.51,3.51,0,0,0-1.761-1.8,1.989,1.989,0,0,0-.619-.095,4.638,4.638,0,0,0-1.8.51,3.8,3.8,0,0,1-1.272.4,3.8,3.8,0,0,1-1.272-.4,4.638,4.638,0,0,0-1.8-.51,2,2,0,0,0-.62.095,3.519,3.519,0,0,0-1.761,1.8,3.68,3.68,0,0,1-.747,1.025,3.743,3.743,0,0,1-1.224.4,3.5,3.5,0,0,0-2.241,1.108,3.48,3.48,0,0,0-.361,2.458,3.768,3.768,0,0,1-.009,1.305,3.643,3.643,0,0,1-.731,1.005A3.534,3.534,0,0,0,0,21.885a3.529,3.529,0,0,0,1.179,2.253,3.62,3.62,0,0,1,.731,1.009,3.745,3.745,0,0,1,.01,1.305,3.48,3.48,0,0,0,.361,2.457,3.5,3.5,0,0,0,2.242,1.108,3.712,3.712,0,0,1,1.222.4,3.686,3.686,0,0,1,.748,1.026,3.509,3.509,0,0,0,1.761,1.8,2.01,2.01,0,0,0,.618.095,4.646,4.646,0,0,0,1.8-.509,3.807,3.807,0,0,1,1.273-.4,3.791,3.791,0,0,1,1.272.4,4.646,4.646,0,0,0,1.8.509,2.019,2.019,0,0,0,.62-.095,3.5,3.5,0,0,0,1.76-1.8,3.657,3.657,0,0,1,.75-1.026,3.708,3.708,0,0,1,1.224-.4,3.494,3.494,0,0,0,2.24-1.107,3.482,3.482,0,0,0,.361-2.459,3.763,3.763,0,0,1,.009-1.3A3.6,3.6,0,0,1,22.714,24.14ZM6.476,18.813a2.436,2.436,0,1,1,2.435,2.435A2.438,2.438,0,0,1,6.476,18.813Zm1.7,7.749a.615.615,0,0,1-.87-.87L15.8,17.2a.615.615,0,1,1,.87.87Zm6.882.836A2.436,2.436,0,1,1,17.5,24.963,2.438,2.438,0,0,1,15.061,27.4Z" transform="translate(0 0)"/><path class="a" d="M166.341,166.773a1.205,1.205,0,1,0-1.205-1.205A1.207,1.207,0,0,0,166.341,166.773Z" transform="translate(-157.43 -146.754)"/></g></svg>