<svg xmlns="http://www.w3.org/2000/svg" width="20" height="18.001" viewBox="0 0 20 18.001"><defs><style>.a{fill:#24d1fd;}</style></defs><g transform="translate(-482.495 -113.231)"><path class="a" d="M501.228,116.232h-3.233V115.5a2.27,2.27,0,0,0-2.267-2.268h-6.466a2.27,2.27,0,0,0-2.267,2.268v.733h-3.233a1.267,1.267,0,0,0-1.267,1.267v12.465a1.268,1.268,0,0,0,1.267,1.268h17.466a1.268,1.268,0,0,0,1.267-1.268V117.5A1.267,1.267,0,0,0,501.228,116.232Zm-12.233-.733a.268.268,0,0,1,.267-.268h6.466a.268.268,0,0,1,.267.268v.733h-7Zm11.168,6.944a1.609,1.609,0,0,1-1.572,1.288h-3.1v.224a1.278,1.278,0,0,1-1.277,1.276h-3.446a1.278,1.278,0,0,1-1.277-1.276v-.224h-3.1a1.607,1.607,0,0,1-1.572-1.288l-.823-4.113a.5.5,0,1,1,.98-.2l.823,4.114a.6.6,0,0,0,.592.484h3.1v-.223a1.279,1.279,0,0,1,1.277-1.277h3.446a1.279,1.279,0,0,1,1.277,1.277v.223h3.1a.607.607,0,0,0,.592-.485l.822-4.113a.5.5,0,1,1,.98.2Z" transform="translate(0)"/></g></svg>