<svg xmlns="http://www.w3.org/2000/svg" width="13.203" height="129.385" viewBox="0 0 13.203 129.385"><defs><style>.a,.b{fill:#707070;}.a{fill-rule:evenodd;}</style></defs><g transform="translate(-48.959 -845.327)"><g transform="translate(48.959 845.327)"><path class="a" d="M66.123,1192.265l-4.66,1.667v-1.019l3.451-1.183-3.451-1.138v-1.006l4.66,1.675Z" transform="translate(-57.009 -1066.868)"/><rect class="b" width="4.66" height="0.942" transform="translate(4.454 119.979)"/><path class="a" d="M64.259,1165.822h-.783v-2.036h1.856a2.542,2.542,0,0,1,.5.866,3.177,3.177,0,0,1,.218,1.133,2.479,2.479,0,0,1-.311,1.271,1.887,1.887,0,0,1-.87.822,2.808,2.808,0,0,1-1.247.275,2.575,2.575,0,0,1-1.292-.311,2.031,2.031,0,0,1-.871-.883,2.492,2.492,0,0,1-.235-1.12,2.195,2.195,0,0,1,.369-1.353,1.655,1.655,0,0,1,1.007-.634l.173.942a.914.914,0,0,0-.539.368,1.059,1.059,0,0,0-.2.676,1.293,1.293,0,0,0,.388.98,1.676,1.676,0,0,0,1.156.365,1.84,1.84,0,0,0,1.254-.376,1.21,1.21,0,0,0,.412-.962,1.553,1.553,0,0,0-.121-.589,1.894,1.894,0,0,0-.274-.513h-.6Z" transform="translate(-56.859 -1050.257)"/><rect class="b" width="4.66" height="0.942" transform="translate(4.454 110.404)"/><path class="a" d="M66.192,1142.7H61.57v-.943H65.41v-2.341h.782Z" transform="translate(-57.078 -1034.566)"/><path class="a" d="M64.282,1123.684l-1.727.648,1.727.629Zm1.84-1.726v1.014l-1.061.411v1.865l1.061.387v1l-4.66-1.82v-.992Z" transform="translate(-57.009 -1023.348)"/><path class="a" d="M62.25,1108.758h3.09v-.7a2.62,2.62,0,0,0-.043-.566.8.8,0,0,0-.648-.629,2.8,2.8,0,0,0-.855-.1,2.6,2.6,0,0,0-.83.1,1.048,1.048,0,0,0-.45.273.791.791,0,0,0-.217.431,3.767,3.767,0,0,0-.047.77Zm-.788.944v-1.716a2.983,2.983,0,0,1,.094-.89,1.584,1.584,0,0,1,.423-.7,2.008,2.008,0,0,1,.758-.443,3.453,3.453,0,0,1,1.1-.152,2.925,2.925,0,0,1,.985.14,2.163,2.163,0,0,1,.832.5,1.681,1.681,0,0,1,.367.663,2.8,2.8,0,0,1,.1.828v1.77Z" transform="translate(-57.009 -1012.951)"/><path class="a" d="M63.639,1091.143a1.7,1.7,0,0,0,1.2-.362,1.257,1.257,0,0,0,.005-1.848,2.216,2.216,0,0,0-2.42-.011,1.305,1.305,0,0,0,0,1.862A1.722,1.722,0,0,0,63.639,1091.143Zm.034.976a2.971,2.971,0,0,1-1.192-.218,1.884,1.884,0,0,1-.638-.43,1.655,1.655,0,0,1-.422-.606,2.466,2.466,0,0,1-.193-1,2.164,2.164,0,0,1,.643-1.645,2.83,2.83,0,0,1,3.548,0,2.438,2.438,0,0,1,0,3.282A2.371,2.371,0,0,1,63.674,1092.119Z" transform="translate(-56.859 -1001.231)"/><rect class="b" width="1.221" height="44.99" transform="translate(0 84.396)"/><rect class="b" width="1.229" height="44.99" transform="translate(11.974 84.396)"/><path class="a" d="M72.564,994.294v-.718a1.46,1.46,0,0,0-.065-.525.817.817,0,0,0-.167-.307,1.189,1.189,0,0,0-.435-.244,2.16,2.16,0,0,0-.648-.088,1.516,1.516,0,0,0-.808.184.83.83,0,0,0-.385.411,1.942,1.942,0,0,0-.063.584v.7Zm.4.446H69.591v-1.156a3.168,3.168,0,0,1,.046-.6,1.065,1.065,0,0,1,.244-.5,1.41,1.41,0,0,1,.577-.4,2.191,2.191,0,0,1,.8-.131,2.482,2.482,0,0,1,.678.082,1.789,1.789,0,0,1,.487.234,1.083,1.083,0,0,1,.316.3,1.411,1.411,0,0,1,.161.4,2.236,2.236,0,0,1,.063.551Z" transform="translate(-62.242 -939.689)"/><path class="a" d="M72.963,985.644H69.591v-2.438h.4v2h1.031v-1.87h.391v1.87h1.15v-2.071h.4Z" transform="translate(-62.242 -934.009)"/><path class="a" d="M71.675,970.158l.113-.448a1.492,1.492,0,0,1,.841.51,1.356,1.356,0,0,1,.282.886,1.616,1.616,0,0,1-.223.893,1.408,1.408,0,0,1-.64.516,2.3,2.3,0,0,1-.905.177,1.982,1.982,0,0,1-.913-.2,1.3,1.3,0,0,1-.6-.571,1.665,1.665,0,0,1-.207-.822,1.405,1.405,0,0,1,.256-.848,1.364,1.364,0,0,1,.726-.476l.106.432a1.04,1.04,0,0,0-.543.342.939.939,0,0,0-.17.559,1.11,1.11,0,0,0,.191.651,1.074,1.074,0,0,0,.5.371,2.146,2.146,0,0,0,.647.108,2.082,2.082,0,0,0,.751-.125.935.935,0,0,0,.478-.4,1.058,1.058,0,0,0,.157-.57.955.955,0,0,0-.214-.63A1.1,1.1,0,0,0,71.675,970.158Z" transform="translate(-62.136 -925.372)"/><path class="a" d="M71.207,962.262a1.342,1.342,0,0,0,.96-.33,1.067,1.067,0,0,0,.349-.829,1.051,1.051,0,0,0-.349-.825,1.426,1.426,0,0,0-1.009-.328,1.8,1.8,0,0,0-.717.14,1.092,1.092,0,0,0-.482.408,1.158,1.158,0,0,0-.17.6,1.139,1.139,0,0,0,.334.812A1.384,1.384,0,0,0,71.207,962.262Zm0,.459a1.816,1.816,0,0,1-1.318-.459,1.534,1.534,0,0,1-.479-1.159,1.656,1.656,0,0,1,.226-.843,1.536,1.536,0,0,1,.622-.578,2.119,2.119,0,0,1,.9-.195,2.068,2.068,0,0,1,.925.205,1.411,1.411,0,0,1,.607.6,1.6,1.6,0,0,1,.209.814,1.565,1.565,0,0,1-.232.846,1.529,1.529,0,0,1-.625.576A1.953,1.953,0,0,1,71.2,962.721Z" transform="translate(-62.124 -918.793)"/><path class="a" d="M72.963,954.124H69.591v-.445h2.973v-1.666h.4Z" transform="translate(-62.242 -913.983)"/><path class="a" d="M71.207,944.61a1.34,1.34,0,0,0,.96-.325,1.036,1.036,0,0,0,.349-.816,1.065,1.065,0,0,0-.349-.839,1.471,1.471,0,0,0-1.009-.316,1.664,1.664,0,0,0-.717.132,1.091,1.091,0,0,0-.482.41,1.143,1.143,0,0,0-.17.6,1.18,1.18,0,0,0,.334.82A1.451,1.451,0,0,0,71.207,944.61Zm0,.471a1.861,1.861,0,0,1-1.318-.46,1.533,1.533,0,0,1-.479-1.165,1.673,1.673,0,0,1,.226-.842,1.381,1.381,0,0,1,.622-.561,1.877,1.877,0,0,1,.9-.2,2.073,2.073,0,0,1,.925.2,1.4,1.4,0,0,1,.607.586,1.675,1.675,0,0,1,.209.825,1.535,1.535,0,0,1-.857,1.42A1.889,1.889,0,0,1,71.2,945.081Z" transform="translate(-62.124 -907.442)"/><path class="a" d="M72.964,934.45H69.591v-.677l2.387-.794c.223-.071.383-.124.491-.165l-.538-.18-2.341-.809v-.6h3.373v.43H70.142l2.822.989v.4l-2.871.973h2.871Z" transform="translate(-62.242 -900.606)"/><path class="a" d="M72.564,924.213v-.844a2.413,2.413,0,0,0-.009-.3.872.872,0,0,0-.1-.264.458.458,0,0,0-.183-.158.557.557,0,0,0-.287-.074.6.6,0,0,0-.329.1.568.568,0,0,0-.194.267,2.081,2.081,0,0,0-.06.5v.783Zm-1.558,0v-.738a1.684,1.684,0,0,0-.038-.424.442.442,0,0,0-.167-.249.455.455,0,0,0-.3-.081.607.607,0,0,0-.3.068.436.436,0,0,0-.179.237,2.276,2.276,0,0,0-.038.511v.677Zm1.958.435H69.591v-1.255a1.564,1.564,0,0,1,.1-.618.774.774,0,0,1,.315-.37.848.848,0,0,1,.443-.131.792.792,0,0,1,.412.122.846.846,0,0,1,.306.343.833.833,0,0,1,.3-.457.768.768,0,0,1,.514-.175.892.892,0,0,1,.441.1.8.8,0,0,1,.316.248,1.111,1.111,0,0,1,.161.372,1.963,1.963,0,0,1,.063.538Z" transform="translate(-62.242 -894.738)"/><rect class="b" width="3.373" height="0.45" transform="translate(7.349 26.236)"/><path class="a" d="M71.575,911.076v-1.145l-.938.354c-.278.106-.511.183-.7.245a4.175,4.175,0,0,1,.644.175Zm1.389.97-3.373-1.293v-.477l3.373-1.384v.51l-1.027.394v1.4l1.027.375Z" transform="translate(-62.242 -886.251)"/><path class="a" d="M58.549,1058.933l-.039-.43a.976.976,0,0,0,.42-.134.762.762,0,0,0,.257-.339,1.281,1.281,0,0,0,.1-.516,1.237,1.237,0,0,0-.076-.45.579.579,0,0,0-.211-.294.515.515,0,0,0-.569-.009.756.756,0,0,0-.2.3,6.179,6.179,0,0,0-.162.607,3.556,3.556,0,0,1-.213.65.933.933,0,0,1-.313.363.826.826,0,0,1-.425.117.869.869,0,0,1-.474-.148.94.94,0,0,1-.332-.42,1.434,1.434,0,0,1-.116-.62,1.584,1.584,0,0,1,.12-.665.941.941,0,0,1,.344-.434,1.06,1.06,0,0,1,.542-.172l.033.438a.649.649,0,0,0-.483.223.859.859,0,0,0-.165.59.885.885,0,0,0,.148.589.418.418,0,0,0,.357.187.371.371,0,0,0,.3-.134,1.62,1.62,0,0,0,.239-.67,5.533,5.533,0,0,1,.212-.743,1.078,1.078,0,0,1,.346-.44.868.868,0,0,1,.487-.136.913.913,0,0,1,.505.147.981.981,0,0,1,.374.448,1.635,1.635,0,0,1,.131.643,1.853,1.853,0,0,1-.146.774.927.927,0,0,1-.4.487A1.094,1.094,0,0,1,58.549,1058.933Z" transform="translate(-53.623 -981.062)"/><path class="a" d="M56.359,1047.513v-.448H58.3a2.346,2.346,0,0,1,.811.117.975.975,0,0,1,.488.411,1.524,1.524,0,0,1,.19.788,1.607,1.607,0,0,1-.167.774.915.915,0,0,1-.472.427,2.1,2.1,0,0,1-.851.127H56.359v-.445H58.3a1.946,1.946,0,0,0,.652-.08.578.578,0,0,0,.314-.279.877.877,0,0,0,.114-.489.979.979,0,0,0-.214-.7,1.371,1.371,0,0,0-.867-.2Z" transform="translate(-53.723 -975.153)"/><path class="a" d="M57.958,1039.859v-.867a.855.855,0,0,0-.163-.615.527.527,0,0,0-.447-.183.672.672,0,0,0-.367.106.519.519,0,0,0-.2.289,1.985,1.985,0,0,0-.027.411v.859Zm1.773.44H56.359v-1.265a2.526,2.526,0,0,1,.035-.505.976.976,0,0,1,.151-.424.826.826,0,0,1,.332-.269.882.882,0,0,1,.454-.113,1.009,1.009,0,0,1,.728.282,1.294,1.294,0,0,1,.3.995v.859h1.367Z" transform="translate(-53.723 -969.142)"/><path class="a" d="M59.731,1031.57H56.359v-2.429h.4v1.99h1.027v-1.862h.408v1.862h1.137v-2.069h.4Z" transform="translate(-53.723 -963.567)"/><path class="a" d="M57.844,1021.488v-.954a1.46,1.46,0,0,0-.061-.482.572.572,0,0,0-.2-.273.694.694,0,0,0-.307-.086.5.5,0,0,0-.39.179.776.776,0,0,0-.158.547v1.07Zm1.887.446H56.359v-1.493a1.8,1.8,0,0,1,.1-.686.67.67,0,0,1,.31-.376,1.042,1.042,0,0,1,.51-.15.821.821,0,0,1,.607.244,1.137,1.137,0,0,1,.316.719,1.173,1.173,0,0,1,.166-.276,2.15,2.15,0,0,1,.45-.367l.917-.589v.562l-.7.451a3.558,3.558,0,0,0-.463.323.894.894,0,0,0-.229.222.638.638,0,0,0-.09.209,1.154,1.154,0,0,0-.013.246v.516h1.5Z" transform="translate(-53.723 -957.065)"/><rect class="b" width="3.372" height="0.449" transform="translate(2.636 60.951)"/><path class="a" d="M59.731,1009.3H56.359v-.455l2.647-1.769H56.359v-.433h3.372v.462l-2.651,1.769h2.651Z" transform="translate(-53.723 -949.14)"/><path class="a" d="M59.731,999.324H56.756v1.1h-.4v-2.669h.4v1.117h2.975Z" transform="translate(-53.723 -943.422)"/><path class="a" d="M59.731,991.892H56.359V989.45h.4v2h1.027v-1.871h.408v1.871h1.137v-2.077h.4Z" transform="translate(-53.723 -938.025)"/><path class="a" d="M59.731,982.849H56.359v-.462l2.647-1.759H56.359V980.2h3.372v.456l-2.651,1.78h2.651Z" transform="translate(-53.723 -932.12)"/><path class="a" d="M59.327,972.6v-.72a1.739,1.739,0,0,0-.057-.525.673.673,0,0,0-.178-.294.965.965,0,0,0-.426-.25,1.856,1.856,0,0,0-.644-.086,1.58,1.58,0,0,0-.819.169.888.888,0,0,0-.378.419,1.767,1.767,0,0,0-.07.579v.708Zm.4.449H56.359v-1.165a2.577,2.577,0,0,1,.046-.6,1.3,1.3,0,0,1,.237-.49,1.347,1.347,0,0,1,.584-.4,2.116,2.116,0,0,1,.8-.131,2.221,2.221,0,0,1,.677.09,1.5,1.5,0,0,1,.492.232,1.084,1.084,0,0,1,.3.311,1.208,1.208,0,0,1,.176.4,2.859,2.859,0,0,1,.052.549Z" transform="translate(-53.723 -925.726)"/><path class="a" d="M59.731,963.958H56.359v-2.442h.4v2h1.027v-1.862h.408v1.862h1.137v-2.074h.4Z" transform="translate(-53.723 -920.049)"/><path class="a" d="M59.731,954.914H56.359v-.457l2.647-1.768H56.359v-.437h3.372v.464l-2.651,1.766h2.651Z" transform="translate(-53.723 -914.138)"/><path class="a" d="M58.451,942.595l.111-.449a1.515,1.515,0,0,1,.836.508,1.384,1.384,0,0,1,.295.889,1.73,1.73,0,0,1-.219.891,1.455,1.455,0,0,1-.648.516,2.183,2.183,0,0,1-.9.178,2.135,2.135,0,0,1-.923-.194,1.415,1.415,0,0,1-.6-.579,1.706,1.706,0,0,1-.2-.815,1.4,1.4,0,0,1,.257-.855,1.238,1.238,0,0,1,.719-.476l.108.439a1.055,1.055,0,0,0-.539.335.891.891,0,0,0-.166.56,1.041,1.041,0,0,0,.186.653.946.946,0,0,0,.5.362,2.037,2.037,0,0,0,1.4-.017.891.891,0,0,0,.476-.384,1.086,1.086,0,0,0,.161-.58.982.982,0,0,0-.211-.627A1.12,1.12,0,0,0,58.451,942.595Z" transform="translate(-53.623 -907.634)"/><rect class="b" width="3.372" height="0.436" transform="translate(2.636 33.445)"/><path class="a" d="M58.351,931.29v-1.141l-.935.354c-.286.1-.521.186-.7.237a4.375,4.375,0,0,1,.642.184Zm1.38.977-3.372-1.293v-.493l3.372-1.371v.5l-1.019.4v1.41l1.019.37Z" transform="translate(-53.723 -899.244)"/><path class="a" d="M59.731,920.254H56.359V917.98h.4v1.828H57.8v-1.58h.4v1.58h1.533Z" transform="translate(-53.723 -892.082)"/><rect class="b" width="3.372" height="0.445" transform="translate(2.636 24.773)"/><path class="a" d="M59.731,907.886H56.359v-.461l2.647-1.775H56.359v-.431h3.372v.462l-2.651,1.776h2.651Z" transform="translate(-53.723 -883.886)"/><path class="a" d="M58.351,897.49v-1.15l-.935.357c-.286.1-.521.186-.7.242a3.848,3.848,0,0,1,.642.178Zm1.38.972-3.372-1.3v-.476l3.372-1.381v.513l-1.019.388v1.406l1.019.374Z" transform="translate(-53.723 -877.504)"/><path class="a" d="M59.731,889.51H56.359v-.459l2.647-1.768H56.359v-.431h3.372v.461l-2.651,1.766h2.651Z" transform="translate(-53.723 -872.062)"/><path class="a" d="M58.451,877.189l.111-.444a1.464,1.464,0,0,1,.836.5,1.375,1.375,0,0,1,.295.892,1.7,1.7,0,0,1-.219.884,1.42,1.42,0,0,1-.648.517,2.389,2.389,0,0,1-.9.186,1.961,1.961,0,0,1-.923-.209,1.349,1.349,0,0,1-.6-.573,1.653,1.653,0,0,1-.2-.8,1.4,1.4,0,0,1,.257-.863,1.3,1.3,0,0,1,.719-.478l.108.438a1.053,1.053,0,0,0-.539.343.89.89,0,0,0-.166.562,1.035,1.035,0,0,0,.186.647.947.947,0,0,0,.5.368,2.065,2.065,0,0,0,.648.108,2.211,2.211,0,0,0,.753-.128.938.938,0,0,0,.476-.4,1,1,0,0,0,.161-.565,1.013,1.013,0,0,0-.211-.637A1.181,1.181,0,0,0,58.451,877.189Z" transform="translate(-53.623 -865.554)"/><rect class="b" width="3.372" height="0.431" transform="translate(2.636 10.124)"/><path class="a" d="M59.731,866.933H56.359v-2.442h.4v2h1.027v-1.866h.408v1.866h1.137v-2.076h.4Z" transform="translate(-53.723 -857.614)"/><path class="a" d="M57.844,856.862V855.9a1.474,1.474,0,0,0-.061-.482.509.509,0,0,0-.2-.263.53.53,0,0,0-.307-.088.477.477,0,0,0-.39.181.768.768,0,0,0-.158.54v1.073Zm1.887.438H56.359V855.8a1.783,1.783,0,0,1,.1-.682.706.706,0,0,1,.31-.382,1.113,1.113,0,0,1,.51-.135.884.884,0,0,1,.607.228,1.176,1.176,0,0,1,.316.723.954.954,0,0,1,.166-.27,2.354,2.354,0,0,1,.45-.37l.917-.586v.559l-.7.444c-.2.14-.364.24-.463.319a1.063,1.063,0,0,0-.229.241.557.557,0,0,0-.09.2,1.249,1.249,0,0,0-.013.244v.527h1.5Z" transform="translate(-53.723 -851.124)"/><path class="a" d="M58.351,847.5v-1.142l-.935.358c-.286.1-.521.181-.7.23a4.135,4.135,0,0,1,.642.188Zm1.38.975-3.372-1.289v-.482l3.372-1.381v.5l-1.019.391v1.414l1.019.374Z" transform="translate(-53.723 -845.327)"/></g></g></svg>