<svg xmlns="http://www.w3.org/2000/svg" width="19.313" height="18.301" viewBox="0 0 19.313 18.301"><defs><style>.a{fill:#65c323;}</style></defs><g transform="translate(-926.67 -529.015)"><path class="a" d="M945.981,539l0-6.572v-.31a2.1,2.1,0,0,0-2.081-1.892h-.023l-1.741-.008a1.35,1.35,0,0,0-1.4-1.2,1.366,1.366,0,0,0-1.441,1.2l-2.847,0a.176.176,0,0,0-.057-.026c-.016-.007-.021-.028-.039-.03h-.018a.148.148,0,0,0-.092.033s0,.011-.008.015l-.009.009-3.056,0a1.346,1.346,0,0,0-1.406-1.2,1.373,1.373,0,0,0-1.441,1.2h-1.458a.494.494,0,0,0-.093.011h-.019a2.076,2.076,0,0,0-2.074,1.9v9.067h0l0,3.876a2.222,2.222,0,0,0,2.191,2.233h14.931a2.221,2.221,0,0,0,2.191-2.233Zm-5.422-8.7a.148.148,0,0,1,.146-.133h.018a.149.149,0,0,1,.129.1v1.145a.151.151,0,0,1-.292.018Zm-8.978-.006c.006-.062.058-.109.154-.109h.016c.065.006.123.044.128.087v1.14c-.01.062-.07.105-.168.1a.125.125,0,0,1-.129-.087ZM944.671,539v6.076a.937.937,0,0,1-.92.935H928.9a.937.937,0,0,1-.92-.935V539h-.029v-4.839h8.312c.021,0,.039.012.06.012l0,0a.562.562,0,0,0,.069-.014h5.455a.586.586,0,0,0,.179-1.159.423.423,0,0,0-.142,0h-5.416a.623.623,0,0,0-.149-.029.583.583,0,0,0-.144.029H927.95v-.538a.937.937,0,0,1,.919-.938h1.449a1.445,1.445,0,0,0,2.846-.1v-.034l3.014,0v.028l0,0h0l0,0a.116.116,0,0,0,.074.065c.015.009.02.03.038.033a.143.143,0,0,0,.127-.044.107.107,0,0,0,.052-.076V531.4l2.807,0v.05a1.445,1.445,0,0,0,2.841.085h1.625a.936.936,0,0,1,.923.943Z"/><path class="a" d="M936.327,536.685a3.308,3.308,0,1,0,3.307,3.308A3.312,3.312,0,0,0,936.327,536.685Zm1.863,2.734-1.9,1.9a.532.532,0,0,1-.753,0l-1.072-1.072a.533.533,0,0,1,.753-.754l.7.7,1.525-1.526a.533.533,0,0,1,.753.754Z"/></g></svg>